<?xml version="1.0" standalone="no"?>
<!DOCTYPE svg PUBLIC "-//W3C//DTD SVG 20010904//EN"
 "http://www.w3.org/TR/2001/REC-SVG-20010904/DTD/svg10.dtd">
<svg version="1.0" xmlns="http://www.w3.org/2000/svg"
 width="1024.000000pt" height="1024.000000pt" viewBox="0 0 1024.000000 1024.000000"
 preserveAspectRatio="xMidYMid meet">
<metadata>
Created by potrace 1.16, written by Peter Selinger 2001-2019
</metadata>
<g transform="translate(0.000000,1024.000000) scale(0.100000,-0.100000)"
fill="#000000" stroke="none">
<path d="M4855 9828 c-171 -21 -238 -31 -315 -45 -47 -8 -96 -17 -110 -19 -53
-10 -208 -47 -269 -65 -35 -10 -72 -19 -82 -19 -10 0 -20 -4 -24 -9 -3 -5 -20
-13 -38 -17 -17 -3 -50 -15 -72 -24 -22 -10 -89 -37 -150 -60 -60 -24 -152
-60 -202 -82 -306 -130 -669 -245 -878 -279 -46 -8 -234 -19 -314 -19 -26 0
-8 -21 37 -44 46 -23 97 -40 157 -50 17 -3 41 -8 55 -11 55 -12 271 -13 373
-2 59 7 107 10 107 7 0 -3 -12 -11 -27 -18 -69 -31 -223 -161 -399 -337 -154
-153 -216 -224 -321 -365 -114 -154 -185 -254 -218 -308 -5 -9 -14 -21 -20
-28 -5 -6 -30 -40 -55 -74 -25 -35 -60 -78 -77 -97 -18 -19 -33 -38 -33 -41 0
-21 -324 -424 -395 -492 -25 -25 -56 -58 -67 -73 l-20 -28 29 7 c104 25 332
166 452 279 87 82 87 89 7 -140 -31 -88 -56 -168 -56 -178 0 -10 -7 -32 -16
-48 -8 -17 -16 -45 -18 -62 -2 -18 -5 -39 -9 -47 -12 -33 -25 -89 -37 -160 -7
-41 -20 -106 -30 -145 -9 -38 -23 -95 -29 -125 -26 -117 -44 -186 -56 -215 -8
-16 -21 -54 -30 -84 -23 -74 -109 -246 -151 -300 -19 -24 -34 -48 -34 -52 0
-4 -25 -28 -56 -53 l-56 -46 34 0 c81 0 279 136 410 281 l64 70 0 -63 c1 -122
18 -219 55 -315 18 -44 19 -57 9 -87 -6 -19 -13 -52 -15 -73 -2 -21 -6 -51 -9
-68 -3 -16 -7 -84 -11 -150 -3 -66 -15 -169 -26 -230 -28 -145 -69 -231 -150
-313 -34 -34 -60 -64 -57 -67 15 -15 144 97 191 165 17 25 43 59 58 77 15 18
47 65 70 105 l43 73 17 -65 c24 -96 47 -148 94 -215 26 -37 55 -98 75 -159 52
-158 133 -287 254 -407 42 -42 89 -82 104 -90 15 -8 36 -22 47 -32 11 -10 54
-36 96 -58 43 -22 83 -48 91 -57 8 -9 25 -48 37 -87 31 -93 143 -307 154 -296
5 5 8 53 5 105 -2 53 -3 96 -1 96 1 0 13 -19 27 -42 61 -106 95 -333 63 -411
l-16 -37 24 17 c30 23 98 141 120 212 16 49 19 52 29 34 6 -11 65 -82 131
-158 66 -75 128 -150 138 -166 11 -16 21 -29 24 -29 3 0 3 27 0 60 -3 33 -3
60 0 60 10 0 42 -89 48 -136 13 -98 -42 -265 -106 -318 -20 -17 -25 -26 -15
-26 28 0 146 49 189 78 48 34 157 145 157 161 0 62 82 -119 106 -235 16 -80
16 -226 -1 -269 -15 -37 102 92 133 146 16 30 38 80 48 112 l18 58 23 -43 c23
-45 39 -91 47 -143 9 -57 19 -150 20 -185 l1 -35 -55 -2 c-523 -15 -621 -19
-690 -27 -25 -3 -70 -8 -100 -10 -138 -12 -267 -45 -309 -79 -15 -12 -118
-145 -136 -176 -5 -9 -21 -31 -34 -50 -27 -38 -60 -95 -97 -168 -15 -30 -33
-53 -43 -54 -9 0 -66 0 -128 1 -159 2 -189 -13 -297 -155 -16 -20 -45 -44 -65
-52 -138 -54 -191 -111 -250 -269 -7 -17 -13 -41 -14 -54 -1 -16 -33 -56 -94
-115 -86 -84 -92 -93 -98 -140 -6 -44 -4 -53 18 -77 l25 -27 -22 -19 c-11 -10
-57 -40 -101 -66 -44 -26 -98 -61 -120 -77 -22 -16 -76 -54 -120 -84 -109 -75
-126 -88 -235 -181 -180 -154 -267 -247 -315 -339 -15 -27 -33 -57 -41 -66 -8
-8 -14 -21 -14 -27 0 -6 -16 -44 -35 -84 -47 -100 -95 -225 -95 -248 0 -10 -5
-22 -10 -25 -19 -12 -10 -35 14 -35 18 0 25 7 30 30 18 93 147 378 216 480 47
69 305 317 368 354 9 5 27 20 42 33 15 13 54 42 88 66 34 23 108 74 164 113
92 63 159 104 171 104 14 0 15 -35 2 -53 -16 -24 -20 -41 -6 -33 4 3 8 -8 7
-24 -1 -17 -4 -30 -7 -30 -3 0 -4 -12 -2 -28 3 -15 -3 -36 -11 -47 -15 -20
-15 -20 -16 3 0 12 -4 22 -10 22 -14 0 -12 -24 2 -38 9 -9 10 -15 2 -20 -7 -4
-13 -16 -15 -27 -3 -13 -14 -21 -32 -23 -26 -3 -28 -1 -22 20 5 18 4 20 -4 8
-6 -8 -11 -18 -11 -22 0 -17 46 -48 72 -48 16 0 28 -6 28 -12 0 -9 4 -8 10 2
8 12 10 11 10 -7 0 -13 -5 -23 -11 -23 -17 0 -40 -28 -29 -35 19 -12 10 -35
-12 -35 -23 -1 -23 -1 -3 -16 17 -13 18 -16 5 -24 -13 -9 -13 -11 0 -20 13 -9
13 -11 0 -20 -13 -8 -12 -10 3 -10 13 0 17 -9 17 -40 0 -22 4 -40 9 -40 5 0 9
-20 9 -44 1 -41 0 -43 -25 -38 -18 3 -24 1 -19 -7 4 -6 18 -11 31 -11 18 0 22
-4 18 -20 -6 -23 -19 -26 -26 -7 -3 9 -9 9 -26 0 -11 -7 -28 -13 -36 -13 -8 0
-15 -5 -15 -11 0 -8 17 -10 50 -7 37 4 50 2 50 -8 0 -7 -4 -15 -9 -18 -5 -3
-7 -15 -4 -26 3 -11 10 -17 17 -13 6 4 4 -1 -4 -12 -13 -15 -15 -16 -18 -3 -3
14 -21 25 -74 42 -12 3 -15 1 -11 -10 3 -7 14 -14 24 -14 11 0 30 -9 42 -20
25 -24 31 -61 27 -175 -3 -59 -1 -67 11 -59 6 3 10 -1 9 -12 -6 -52 0 -74 20
-74 20 0 21 4 23 72 1 15 6 26 12 25 5 -1 9 4 7 12 -2 8 2 17 9 21 13 9 3 30
-14 30 -7 0 -13 16 -14 39 -1 33 1 38 17 34 10 -3 21 0 24 6 4 6 2 11 -3 11
-6 0 -10 10 -8 21 3 33 -21 35 -26 2 -2 -18 -4 -12 -4 14 0 28 5 43 13 43 7 0
16 5 20 12 5 7 1 9 -13 6 -21 -5 -21 -2 -20 183 1 176 2 189 19 189 20 0 24
15 7 26 -6 3 -15 0 -20 -7 -7 -10 -9 -3 -7 21 2 27 8 35 28 40 24 6 25 6 3 12
-12 3 -24 1 -26 -6 -3 -6 -4 14 -3 43 2 31 8 57 14 59 17 5 15 22 -2 22 -9 0
-13 11 -12 35 1 39 18 45 52 20 18 -14 18 -14 -11 -16 -17 -1 -23 -3 -12 -6 9
-2 17 -9 17 -14 0 -5 14 -9 30 -9 30 0 41 -14 18 -23 -8 -2 -9 -8 -4 -13 5 -5
11 -4 13 4 6 16 40 16 46 0 2 -7 8 -9 13 -5 5 4 2 13 -6 18 -11 8 -12 12 -2
16 23 9 12 23 -15 18 l-28 -5 28 11 c22 9 26 14 16 25 -22 26 8 14 42 -17 17
-16 41 -35 52 -41 15 -7 16 -12 7 -18 -7 -4 -9 -13 -5 -20 5 -9 4 -11 -3 -6
-13 8 -52 -10 -52 -25 0 -5 11 -15 25 -21 18 -8 22 -15 15 -23 -8 -9 -5 -14 8
-17 15 -4 17 0 14 23 -3 17 0 29 7 29 6 0 11 -19 11 -46 0 -38 -2 -44 -14 -35
-11 9 -12 6 -8 -14 2 -14 9 -22 14 -19 6 4 9 -13 7 -45 -2 -28 -2 -51 1 -51 3
0 5 -18 5 -40 0 -24 -5 -40 -12 -40 -14 0 -20 -22 -21 -78 -1 -24 3 -40 9 -37
5 4 9 -6 8 -22 0 -25 -1 -26 -9 -8 -7 16 -9 17 -9 3 -1 -9 6 -21 14 -26 15 -8
30 -72 17 -72 -4 0 -7 -17 -7 -37 0 -38 0 -38 -40 -36 -38 2 -38 2 -11 -7 35
-11 44 -24 39 -54 -3 -16 -10 -22 -22 -19 -14 3 -16 -3 -13 -41 3 -33 9 -45
23 -49 11 -3 23 2 29 11 7 13 9 3 10 -35 l0 -53 58 0 c73 0 105 9 98 26 -4 10
3 14 20 14 16 0 23 4 18 11 -3 6 -15 8 -26 6 -30 -8 -48 3 -48 29 0 21 3 23
33 18 17 -3 38 -7 45 -10 6 -2 12 1 12 6 0 6 -10 10 -22 10 -20 1 -68 31 -68
43 0 3 9 7 20 10 11 3 20 1 20 -4 0 -12 37 -11 45 1 3 6 -1 10 -9 10 -21 0
-20 19 1 43 10 11 12 17 5 13 -7 -4 -20 -2 -28 5 -12 10 -13 9 -8 -4 6 -17
-16 -47 -35 -47 -8 0 -7 7 1 21 10 17 10 23 1 26 -16 6 9 33 30 33 8 0 17 9
20 20 5 18 4 19 -16 5 -33 -23 -44 -18 -45 20 -1 25 3 35 14 35 8 0 17 -7 20
-15 9 -21 19 -19 21 5 1 11 -2 18 -6 16 -7 -5 -51 38 -51 49 0 3 9 0 19 -7 15
-9 25 -9 46 0 28 13 50 8 39 -10 -4 -6 0 -14 7 -19 9 -6 10 -12 4 -16 -14 -10
-19 -73 -6 -73 5 0 12 -7 15 -16 5 -14 4 -15 -8 -5 -9 7 -17 8 -20 2 -3 -5 -1
-11 5 -13 14 -5 19 -37 22 -148 2 -85 2 -85 30 -88 22 -3 27 1 27 20 5 333 10
562 15 566 3 3 5 -24 5 -60 0 -74 9 -128 20 -128 5 0 6 8 3 19 -3 10 0 22 7
26 7 4 8 11 2 18 -6 7 -12 50 -15 97 -3 47 -3 72 0 57 4 -24 7 -26 19 -16 11
9 18 9 26 1 9 -9 8 -12 -5 -12 -9 0 -17 -4 -17 -10 0 -13 10 -13 49 1 36 13
37 17 14 35 -15 11 -15 13 -3 14 8 0 21 -9 27 -19 14 -23 3 -36 -40 -46 -19
-5 -25 -11 -18 -18 7 -7 18 -5 34 6 32 21 62 4 33 -18 -29 -22 -12 -30 35 -16
28 9 39 17 35 27 -3 8 -1 14 4 14 6 0 10 9 10 20 0 13 -9 22 -27 26 -15 4 -38
13 -52 20 -14 8 -35 14 -46 14 -15 0 -17 2 -6 9 11 7 9 10 -8 16 -13 4 -20 9
-17 12 9 10 76 -18 69 -30 -4 -6 0 -8 10 -4 8 3 21 0 27 -8 6 -7 22 -16 35
-19 23 -6 25 -11 25 -66 0 -33 -4 -60 -9 -60 -5 0 -11 -20 -13 -45 -3 -43 5
-59 15 -32 3 6 6 -1 6 -16 1 -16 -3 -26 -9 -22 -5 3 -10 -1 -10 -10 0 -9 5
-13 10 -10 6 4 10 -6 10 -24 0 -23 -5 -31 -22 -34 l-23 -4 23 -2 c12 0 22 -6
22 -12 0 -5 -4 -8 -9 -4 -5 3 -12 1 -16 -5 -3 -5 1 -10 10 -10 14 0 16 -13 14
-93 -4 -159 -2 -169 24 -165 17 2 23 11 25 36 3 27 7 32 30 33 24 0 25 1 7 8
-11 5 -23 7 -26 5 -3 -2 -5 14 -4 36 1 22 -1 38 -4 35 -4 -2 -7 20 -6 49 0 39
4 53 14 52 8 -1 16 5 18 12 3 7 -4 12 -16 12 -14 0 -19 5 -15 15 4 8 13 15 21
15 8 0 11 5 7 12 -5 8 3 9 27 5 19 -3 28 -3 22 0 -15 6 -17 33 -3 33 18 0 10
22 -15 42 -28 22 -32 38 -11 38 8 0 16 6 19 14 3 8 20 17 37 21 32 7 35 21 7
39 -21 13 -34 1 -18 -18 9 -11 5 -15 -26 -21 -20 -4 -43 -14 -50 -23 -11 -16
-12 -16 -13 1 0 9 4 17 9 17 14 0 21 84 8 92 -6 4 -8 11 -3 15 4 4 13 1 19 -7
7 -9 20 -14 30 -12 9 2 17 -1 17 -7 0 -5 36 -22 80 -38 l81 -28 -2 -90 c0 -49
0 -94 1 -100 6 -28 -1 -55 -15 -55 -13 0 -14 -4 -4 -22 12 -22 12 -22 19 -3 4
11 7 -21 7 -71 0 -113 7 -144 33 -144 18 0 20 7 21 88 1 48 0 99 -1 114 -1 14
4 29 10 33 5 3 8 11 4 16 -3 5 -10 7 -15 4 -5 -4 -9 -2 -9 4 0 5 5 13 10 16 6
3 10 17 10 30 0 19 4 23 18 19 13 -5 14 -4 3 4 -7 5 -10 15 -7 21 4 6 2 11 -3
11 -6 0 -11 8 -11 18 0 13 -2 14 -9 4 -5 -9 -8 1 -8 28 0 40 1 41 26 35 14 -4
32 -12 39 -18 11 -9 11 -13 -4 -24 -17 -12 -16 -13 4 -13 17 0 22 -6 22 -25 0
-16 -6 -25 -15 -25 -8 0 -15 -4 -15 -10 0 -5 6 -7 13 -4 7 2 13 -3 14 -13 0
-10 4 -61 7 -113 4 -52 7 -118 8 -146 l1 -51 39 0 c30 0 38 4 38 19 0 10 -4
18 -10 18 -5 0 -10 9 -10 20 0 11 7 20 15 20 8 0 20 9 27 20 7 11 20 20 29 20
24 0 29 10 17 36 -12 26 -24 31 -31 12 -4 -10 -8 -9 -16 2 -15 21 -14 4 1 -20
11 -17 10 -22 -2 -30 -12 -8 -16 -3 -18 21 -5 49 3 59 48 59 37 0 46 7 41 33
-4 23 24 -3 31 -28 6 -23 3 -32 -12 -42 -25 -18 -25 -24 0 -53 15 -18 17 -27
9 -42 -8 -15 -8 -22 0 -28 7 -3 9 -14 5 -23 -5 -14 1 -17 34 -17 23 0 44 5 47
10 4 7 13 7 26 0 16 -9 19 -7 19 8 0 17 -6 19 -40 15 -34 -4 -40 -2 -41 14 -2
22 2 57 6 61 5 6 100 -21 110 -30 7 -7 2 -8 -12 -3 -26 7 -29 -3 -9 -31 14
-18 15 -18 21 -1 4 9 12 17 19 17 7 0 16 15 21 32 6 21 18 34 30 37 18 3 17 1
-5 -19 -25 -23 -22 -24 26 -3 6 2 24 -11 39 -29 24 -28 28 -30 22 -10 -4 19
-3 21 9 11 7 -6 11 -15 9 -20 -3 -4 -3 -20 1 -34 l6 -25 322 0 c237 0 325 3
334 12 9 9 12 9 12 0 0 -10 42 -13 180 -11 l180 1 -27 25 c-16 14 -23 23 -18
20 51 -25 107 -47 121 -47 16 0 15 3 -4 20 -12 11 -29 20 -38 20 -13 0 -14 3
-4 15 17 21 25 19 40 -10 15 -28 30 -33 30 -10 0 9 -13 24 -30 33 -16 9 -30
20 -30 25 0 12 78 8 83 -5 2 -7 7 -11 10 -8 3 3 2 11 -2 19 -10 16 -91 28 -91
13 0 -6 -20 -14 -44 -17 -33 -5 -51 -3 -68 9 -12 9 -31 16 -41 16 -13 0 -17 5
-14 14 4 9 1 13 -7 10 -17 -6 -110 45 -128 71 -4 5 -12 11 -18 11 -5 1 -16 2
-22 3 -8 1 -6 6 5 12 18 11 24 59 7 59 -5 0 -10 -4 -10 -10 0 -17 -47 -11 -81
9 -30 18 -30 19 -6 18 14 -1 23 -6 20 -11 -3 -5 12 -6 33 -2 22 3 44 7 50 8 6
1 9 10 6 20 -2 10 1 18 7 18 6 0 11 -7 11 -15 0 -10 10 -15 28 -15 l27 1 -38
30 c-49 41 -48 57 6 62 l42 4 -42 1 c-24 1 -43 7 -43 13 0 7 17 10 45 7 35 -2
45 0 45 12 0 12 -10 14 -45 12 -25 -2 -45 -8 -45 -13 0 -5 -18 -9 -40 -9 -27
0 -40 4 -40 14 0 8 -15 17 -34 20 -25 5 -36 13 -40 31 -4 14 -13 25 -21 25 -8
0 -15 5 -15 10 0 6 5 10 11 10 6 0 17 7 26 15 19 19 33 11 26 -15 -3 -11 0
-20 6 -20 6 0 11 7 11 15 0 12 9 13 47 8 34 -4 44 -3 39 5 -4 7 -18 9 -32 6
-18 -5 -24 -2 -24 10 0 9 5 16 10 16 6 0 10 7 10 15 0 8 9 15 20 15 11 0 20
-7 20 -15 0 -8 5 -15 10 -15 13 0 13 6 -2 29 -9 14 -7 23 7 42 17 24 17 24 12
1 -3 -12 -2 -20 3 -17 4 2 23 -16 43 -41 19 -25 38 -41 41 -36 3 5 2 12 -2 16
-4 4 -7 18 -7 32 -1 22 0 22 17 7 22 -20 23 -24 2 -16 -12 4 -15 2 -12 -8 3
-8 16 -13 29 -11 l24 3 -22 -16 c-15 -11 -23 -26 -22 -43 l1 -27 11 28 c15 38
26 34 33 -13 4 -24 12 -40 20 -40 9 0 13 -10 12 -27 -4 -35 16 -43 20 -8 4 30
9 31 34 8 18 -16 18 -16 12 1 -7 18 -6 18 14 0 27 -23 27 -30 1 -45 -13 -7
-19 -7 -15 -1 3 6 2 13 -4 17 -5 3 -10 -1 -10 -9 0 -14 79 -86 95 -86 4 0 5
12 2 26 -3 16 -1 22 5 16 20 -20 4 -47 -30 -50 -40 -4 -40 -13 -2 -35 17 -10
30 -25 30 -34 0 -13 -4 -12 -19 5 -10 12 -24 22 -31 22 -7 0 -21 9 -31 21 -10
12 -24 19 -30 17 -9 -3 -9 -7 2 -16 45 -39 63 -52 73 -53 6 -1 0 -4 -14 -8
-25 -7 -24 -8 8 -15 17 -4 32 -14 32 -22 0 -8 4 -14 9 -14 5 0 11 -9 14 -21 4
-15 1 -19 -11 -17 -9 2 -16 11 -14 20 4 23 -59 43 -88 28 -24 -13 -17 -33 9
-25 10 3 29 1 42 -4 22 -9 22 -10 -11 -11 -32 -2 -33 -3 -10 -10 42 -13 140
-12 141 3 0 6 4 2 9 -10 5 -13 14 -23 20 -23 5 0 10 -9 10 -21 0 -30 23 -18
35 19 l11 31 18 -24 c10 -14 23 -22 28 -19 5 3 2 15 -8 25 -9 11 -15 21 -13
22 2 2 21 -16 43 -40 l38 -43 -31 -29 c-17 -16 -31 -32 -31 -35 0 -12 113 2
122 15 8 11 11 11 15 1 4 -10 8 -10 19 -1 8 6 11 15 8 20 -3 5 0 9 5 9 6 0 11
-8 12 -17 0 -11 3 -13 6 -5 2 6 10 12 18 12 7 0 18 7 25 15 16 19 40 19 40 1
0 -8 -10 -16 -22 -19 -22 -3 -22 -4 -4 -12 13 -6 21 -5 24 3 2 8 13 10 29 6
27 -7 28 -1 8 49 -5 12 -3 17 8 17 20 0 31 31 15 41 -7 4 -9 11 -4 16 4 4 12
0 17 -10 7 -11 22 -17 44 -17 47 0 45 18 -2 22 l-36 3 -1 67 c-1 36 2 64 6 62
5 -3 8 -12 8 -20 0 -8 7 -14 15 -14 20 0 19 20 -2 35 -9 7 -12 15 -7 18 5 3
20 -5 33 -19 l23 -24 -28 -13 c-21 -8 -28 -18 -26 -32 3 -19 9 -21 78 -17 59
3 80 0 94 -13 9 -8 24 -13 34 -9 45 17 -14 49 -85 45 -43 -2 -58 1 -62 13 -4
10 -1 13 9 9 11 -4 14 4 14 35 0 32 4 42 21 47 19 7 20 7 2 21 -17 12 -16 13
10 14 20 0 27 -5 27 -20 0 -11 -4 -20 -10 -20 -5 0 -10 -18 -10 -40 l0 -40 56
0 c47 0 55 3 50 16 -3 9 -6 18 -6 20 0 2 -18 4 -40 4 -33 0 -40 3 -40 20 0 13
7 20 19 20 15 0 20 9 23 45 2 25 0 45 -4 45 -18 0 -6 26 17 37 24 11 25 10 26
-20 3 -106 1 -102 39 -103 44 -1 70 6 70 18 0 6 -11 7 -25 4 -21 -5 -25 -3
-25 14 0 17 4 20 23 15 12 -4 26 -11 32 -16 12 -12 45 -11 45 1 0 6 -7 10 -15
10 -8 0 -15 5 -15 10 0 11 11 13 34 4 9 -3 16 -15 16 -25 0 -12 7 -19 20 -19
13 0 20 7 20 20 0 11 5 20 10 20 6 0 10 7 10 15 0 8 -7 15 -15 15 -9 0 -18 7
-21 15 -4 8 -15 15 -25 15 -10 0 -19 5 -19 10 0 6 -7 10 -15 10 -8 0 -15 -8
-15 -19 0 -14 12 -22 45 -30 46 -11 61 -31 25 -31 -11 0 -20 5 -20 10 0 7 -24
9 -65 7 -65 -4 -94 6 -55 18 27 8 26 39 -2 52 l-22 10 22 5 c15 4 22 2 22 -8
0 -17 27 -19 32 -3 6 17 77 2 85 -17 7 -18 43 -19 43 -1 0 9 -29 20 -82 32
l-81 19 44 15 44 15 -37 10 c-29 7 -38 15 -38 30 0 12 -7 34 -15 50 -15 28
-13 46 7 46 7 0 6 -6 -2 -15 -9 -10 -9 -15 -1 -15 6 0 11 -9 11 -20 0 -11 5
-20 10 -20 6 0 10 9 10 19 0 10 7 21 15 25 18 7 20 23 3 29 -7 2 -5 3 5 1 9
-1 31 5 48 13 16 8 39 13 49 10 11 -3 21 2 25 12 6 14 8 13 15 -4 8 -19 9 -19
9 3 1 15 7 22 21 22 11 0 20 7 20 15 0 8 -9 15 -20 15 -11 0 -20 7 -20 15 0 8
7 15 16 15 16 0 44 -23 44 -37 0 -4 9 -14 20 -21 25 -15 27 -4 3 14 -27 19 -3
40 26 23 16 -11 23 -11 32 -2 10 10 6 15 -14 22 -15 6 -27 17 -27 25 0 9 -9
20 -20 26 -11 6 -20 17 -20 25 0 8 9 15 20 15 11 0 20 -5 20 -11 0 -6 7 -17
15 -25 12 -13 15 -12 25 6 6 11 8 25 4 31 -7 12 14 69 26 69 5 0 11 -6 14 -12
5 -11 7 -11 12 0 3 6 23 12 45 12 l39 0 0 60 c0 60 -6 70 -28 48 -18 -18 -14
-1 5 22 13 15 19 16 25 7 6 -9 13 -6 27 11 11 12 26 22 35 22 9 0 16 8 16 20
0 11 5 20 11 20 5 0 15 14 20 30 7 19 18 30 30 30 10 0 19 7 19 15 0 8 -9 15
-20 15 -27 0 -27 44 -1 62 22 15 32 54 14 51 -7 -2 -10 4 -7 12 5 13 8 13 21
0 8 -8 22 -14 31 -14 15 1 15 2 0 6 -25 6 -23 33 2 33 11 0 20 5 20 10 0 6 5
10 11 10 6 0 8 -9 4 -22 -3 -13 4 -6 15 15 21 38 19 66 -1 37 -8 -12 -9 -9 -5
10 3 14 6 28 6 33 0 16 18 6 23 -13 7 -27 23 -25 31 3 5 17 8 19 15 8 7 -10
13 -11 30 -2 25 14 28 31 5 31 -8 0 -12 5 -9 10 13 20 -24 9 -39 -12 -9 -12
-19 -18 -23 -14 -5 5 -2 11 5 13 7 3 18 16 23 30 7 20 14 24 33 19 13 -3 31 1
42 9 16 13 16 14 2 9 -10 -3 -31 -1 -47 4 -27 9 -31 8 -37 -11 -3 -12 -21 -36
-40 -54 -38 -36 -47 -29 -10 8 27 28 50 68 42 76 -8 8 -26 -7 -26 -22 0 -7 -7
-15 -15 -19 -8 -3 -15 -11 -15 -17 0 -7 -7 -17 -15 -23 -8 -6 -16 -29 -17 -52
-3 -40 -4 -41 -30 -33 -31 9 -33 7 -17 -24 l12 -22 -21 20 c-24 24 -23 34 5
57 28 24 36 23 22 -3 -9 -17 -8 -20 3 -17 7 3 13 21 14 44 1 24 6 38 13 36 6
-1 11 2 11 7 0 6 13 24 29 42 17 18 29 35 29 38 -1 3 2 14 7 24 6 15 10 15 23
5 13 -10 14 -10 8 0 -9 15 23 70 71 125 19 21 39 49 45 63 10 22 36 29 48 12
3 -4 12 -3 20 2 13 8 12 10 -2 10 -10 0 -18 6 -18 13 0 8 -4 7 -10 -3 -5 -8
-10 -12 -10 -8 0 7 78 116 102 143 19 21 -6 -31 -30 -62 -13 -18 -20 -33 -16
-33 5 0 0 -7 -10 -15 -17 -13 -18 -15 -3 -15 10 0 23 15 31 35 18 42 29 46 20
8 l-7 -28 20 25 c11 14 22 33 26 43 3 9 16 17 27 17 22 0 27 15 8 24 -7 3 -3
3 10 0 22 -5 31 13 15 30 -8 8 -9 13 -12 42 0 8 -6 12 -11 9 -6 -4 -8 -16 -4
-28 6 -20 6 -20 -10 -4 -16 15 -15 18 4 37 21 21 40 26 40 10 0 -18 22 -10 27
10 3 11 10 20 15 20 6 0 7 -11 4 -25 -5 -18 -2 -25 8 -25 8 0 20 -2 28 -3 7
-2 10 -2 6 0 -15 9 -8 23 12 23 11 0 20 6 20 13 0 18 -37 47 -60 47 -14 0 -20
7 -20 23 1 21 1 21 14 4 8 -10 31 -20 52 -24 36 -5 37 -4 20 9 -17 13 -17 15
-2 21 17 7 20 -3 16 -58 -1 -16 -7 -33 -14 -37 -8 -6 -8 -10 2 -16 7 -5 12
-17 11 -28 -5 -47 0 -54 37 -54 41 0 76 26 53 40 -7 5 -10 12 -6 16 3 4 13 1
21 -5 11 -10 19 -9 35 1 30 19 26 25 -14 20 -28 -3 -34 -1 -29 11 3 8 14 17
25 20 10 3 19 12 19 21 0 9 5 16 10 16 6 0 10 -6 10 -14 0 -7 7 -19 15 -26 11
-9 14 -22 9 -44 -8 -39 -13 -44 -24 -26 -5 8 -12 11 -16 8 -8 -9 20 -38 38
-38 9 -1 7 -5 -4 -14 -25 -18 -22 -35 7 -58 18 -14 25 -29 25 -54 0 -24 5 -34
15 -34 12 0 15 15 15 79 0 44 -5 82 -10 84 -6 3 -5 4 2 3 9 -2 14 -28 16 -84
2 -45 7 -82 11 -82 5 0 7 -15 5 -32 -1 -18 -3 -50 -3 -70 -1 -21 -5 -38 -11
-38 -5 0 -8 14 -6 30 2 17 1 30 -3 31 -3 0 -14 2 -23 4 -13 2 -18 -3 -18 -19
0 -13 -3 -51 -6 -85 -5 -43 -3 -61 5 -61 6 0 11 17 11 40 0 58 17 49 22 -11 4
-39 1 -56 -11 -70 -43 -47 -43 -49 -33 -91 8 -29 8 -48 0 -62 -10 -18 -11 -19
-23 -2 -13 17 -15 17 -39 1 -14 -10 -26 -14 -26 -10 0 4 -7 1 -16 -6 -15 -12
-16 -10 -9 19 7 32 6 33 -14 20 -12 -7 -21 -21 -21 -30 0 -10 -7 -18 -15 -18
-8 0 -15 -3 -15 -8 0 -4 -19 -7 -42 -6 -40 1 -40 1 -5 -3 20 -2 37 -8 37 -14
0 -5 9 -9 20 -9 11 0 20 5 20 10 0 17 38 11 49 -8 10 -16 10 -16 11 1 0 9 4
17 9 17 5 0 8 -18 7 -39 0 -22 -3 -38 -7 -35 -3 2 -14 -5 -24 -16 -10 -11 -13
-20 -7 -20 6 0 12 6 15 13 2 6 7 10 10 7 3 -3 -10 -22 -29 -42 -34 -37 -64
-42 -64 -11 0 9 6 13 14 10 8 -3 20 1 28 10 12 15 10 16 -14 9 -18 -4 -28 -2
-28 5 0 15 -42 7 -48 -9 -2 -7 5 -16 17 -19 28 -7 26 -14 -9 -38 -16 -11 -30
-24 -30 -29 0 -4 11 -1 25 8 14 9 30 14 35 11 6 -3 10 -1 10 4 0 6 5 11 12 11
7 0 -6 -17 -28 -38 -43 -43 -74 -45 -74 -6 0 19 -5 24 -25 24 -14 0 -25 5 -25
10 0 6 5 10 11 10 5 0 7 5 3 12 -5 8 -2 9 12 4 22 -9 23 -9 47 -7 24 1 11 21
-14 21 -31 0 -20 30 16 44 13 5 15 10 8 13 -7 3 -13 9 -13 14 0 12 38 11 42
-1 2 -6 15 -13 31 -15 20 -4 27 -1 27 10 0 10 9 15 26 15 20 0 25 4 20 16 -3
9 -6 18 -6 20 0 2 -9 4 -20 4 -13 0 -20 -7 -20 -20 0 -26 -47 -28 -66 -2 -12
16 -14 16 -32 -3 -10 -12 -22 -33 -26 -48 -3 -15 -13 -27 -20 -27 -8 0 -16 -6
-19 -12 -4 -11 -7 -11 -18 0 -7 6 -32 12 -55 12 -36 0 -43 3 -47 23 -2 12 -5
4 -6 -19 l-1 -42 45 -6 c29 -5 45 -12 45 -22 0 -8 -9 -14 -19 -14 -29 0 -34
-17 -8 -24 12 -3 24 -1 25 4 5 13 52 13 52 1 0 -5 -6 -12 -12 -14 -9 -4 -8 -6
2 -6 41 -3 43 -19 6 -57 -24 -25 -36 -32 -36 -21 0 24 -18 30 -37 11 -16 -16
-16 -16 5 -10 18 6 22 3 22 -15 0 -18 -2 -19 -15 -9 -12 10 -18 10 -32 -1 -15
-12 -16 -12 -10 4 4 11 1 17 -9 17 -9 0 -14 7 -12 18 3 15 -8 17 -86 20 -53 2
-93 -1 -100 -8 -7 -7 -5 -10 7 -10 12 0 17 -8 17 -30 0 -38 -26 -41 -40 -5
-10 26 -21 29 -82 19 -23 -4 -38 -12 -38 -20 0 -8 -7 -14 -15 -14 -20 0 -19
-17 2 -28 15 -9 14 -12 -5 -33 -24 -25 -28 -39 -12 -39 6 0 10 5 10 11 0 6 7
17 15 25 13 13 17 13 40 -2 31 -20 31 -30 4 -45 -16 -8 -18 -13 -9 -19 9 -5 7
-11 -7 -21 -11 -8 -22 -24 -25 -36 -6 -24 6 -29 60 -24 12 1 22 -3 22 -9 0 -5
-4 -10 -10 -10 -5 0 -10 -6 -10 -14 0 -26 -22 -29 -40 -6 -18 24 -100 56 -100
39 0 -5 9 -9 20 -9 15 0 20 -7 20 -29 0 -25 5 -30 27 -33 14 -2 28 -9 31 -15
6 -19 -45 -16 -52 2 -6 17 -46 21 -46 5 0 -6 7 -13 15 -16 8 -4 15 -12 15 -20
0 -8 -7 -14 -15 -14 -8 0 -15 -9 -15 -20 0 -15 -7 -20 -25 -20 -14 0 -25 5
-25 11 0 5 -5 7 -11 4 -6 -4 -13 2 -16 14 -4 17 -13 21 -44 21 -32 0 -39 -4
-39 -19 0 -11 6 -22 13 -24 10 -4 10 -6 0 -6 -16 -1 -17 -41 -2 -41 15 0 -17
-30 -33 -31 -7 0 -4 -4 7 -9 19 -8 19 -9 -3 -9 -12 -1 -25 -8 -28 -16 -7 -17
-40 -20 -49 -5 -4 6 -11 8 -16 4 -12 -7 22 -44 34 -37 4 3 14 0 21 -6 7 -6 22
-8 32 -4 17 6 18 5 4 -13 -24 -30 -41 -47 -44 -43 -2 2 -8 13 -15 24 -7 11
-10 13 -8 5 6 -21 -11 -50 -28 -50 -11 0 -12 6 -5 25 11 28 -1 33 -21 9 -10
-13 -10 -19 0 -36 10 -16 10 -19 -1 -12 -7 5 -31 14 -54 19 -41 11 -55 6 -66
-25 -2 -7 -14 -15 -27 -17 -41 -6 -60 -45 -38 -80 4 -7 -1 -14 -12 -18 -10 -3
-30 -16 -44 -29 -43 -40 -88 -69 -95 -61 -4 4 -1 10 6 12 14 5 17 23 3 23 -5
0 -14 -14 -20 -31 -10 -30 -31 -32 -31 -3 0 21 -12 17 -45 -17 l-30 -30 28 10
c38 15 42 14 27 -4 -7 -8 -16 -15 -21 -15 -5 0 -29 -13 -55 -30 -31 -19 -55
-28 -70 -24 -12 3 -25 1 -28 -4 -4 -6 3 -8 16 -5 18 4 20 3 12 -6 -6 -7 -18
-14 -25 -15 -26 -5 -49 -18 -49 -27 0 -16 28 -10 95 21 36 16 68 30 70 30 3 0
23 11 45 25 43 27 50 29 50 16 0 -5 -9 -11 -21 -14 -23 -6 -17 -27 7 -27 21 0
17 -21 -6 -27 -25 -7 -26 -20 -2 -27 34 -9 983 -5 977 4 -4 6 1 10 9 10 9 0
16 5 16 10 0 6 -8 10 -19 10 -21 0 -45 23 -34 33 10 11 35 8 28 -3 -3 -6 -1
-11 4 -11 26 -3 30 -4 37 -11 4 -4 1 -14 -6 -23 -7 -9 -10 -19 -6 -22 4 -4 11
-1 16 7 7 11 11 12 24 0 9 -7 20 -9 24 -5 4 4 1 10 -5 12 -7 3 -13 11 -13 20
0 19 29 48 38 38 4 -4 1 -10 -5 -12 -7 -3 -13 -14 -13 -24 0 -13 4 -18 12 -13
7 5 9 2 6 -7 -4 -11 4 -15 33 -16 39 -2 39 -2 39 38 0 32 3 39 20 39 11 0 20
4 20 9 0 5 9 13 21 16 16 5 19 12 15 31 -7 28 1 31 18 8 11 -14 13 -14 25 0
12 14 10 16 -8 16 -11 0 -21 5 -21 11 0 6 -9 8 -20 4 -18 -6 -20 -2 -20 34 0
38 11 53 24 32 4 -5 19 -3 36 6 17 8 36 12 43 10 7 -3 5 -6 -5 -6 -10 -1 -18
-8 -18 -16 0 -8 -4 -15 -10 -15 -5 0 -10 -7 -10 -15 0 -19 19 -19 26 0 10 25
24 17 24 -15 0 -16 -4 -30 -10 -30 -5 0 -7 -13 -4 -30 4 -18 1 -36 -6 -45 -10
-12 -9 -16 4 -21 10 -4 16 -18 16 -35 0 -19 5 -29 15 -29 11 0 15 12 16 40 2
57 3 60 14 58 6 -2 9 -6 7 -10 -1 -5 3 -8 9 -8 6 0 10 10 9 23 -1 12 -1 24 0
27 8 22 7 41 -3 37 -7 -2 -13 -13 -15 -25 -2 -12 -7 -20 -11 -18 -10 7 -1 66
10 66 5 0 9 5 9 11 0 6 -6 9 -13 6 -10 -4 -13 2 -9 19 4 23 6 24 22 9 9 -8 29
-15 43 -15 15 0 27 -3 28 -7 0 -5 2 -51 3 -103 4 -117 2 -110 26 -110 15 0 20
7 21 28 4 89 6 113 12 119 4 3 8 -11 9 -33 l1 -39 7 45 7 45 2 -45 c1 -33 4
-41 11 -29 5 9 8 31 7 48 -2 29 -5 32 -28 27 l-26 -5 2 69 c1 91 15 102 17 14
l1 -69 7 55 c4 37 7 44 8 23 1 -18 7 -33 12 -33 6 0 8 11 4 26 -5 20 -4 25 6
19 9 -5 10 -2 5 14 -4 13 -1 28 6 37 16 20 5 28 -19 15 -12 -6 -29 -11 -39
-10 -16 0 -16 1 2 9 11 5 14 9 8 9 -15 1 -18 51 -4 51 5 0 11 -10 13 -22 4
-26 28 -37 28 -12 0 16 1 16 20 -1 21 -19 27 -45 10 -45 -5 0 -10 -7 -10 -15
0 -8 5 -15 10 -15 6 0 10 -7 10 -15 0 -8 5 -15 10 -15 6 0 10 7 10 15 0 8 -4
15 -10 15 -5 0 -10 4 -10 10 0 15 33 50 47 50 18 0 83 46 76 54 -4 3 1 6 10 6
11 0 14 -5 10 -17 -5 -12 -2 -15 10 -10 16 6 17 -7 16 -146 -2 -238 -3 -227
26 -227 l25 0 1 213 c0 127 4 204 9 192 6 -15 9 -8 9 28 1 35 5 47 16 47 8 0
15 6 15 13 0 6 7 -1 15 -16 8 -15 12 -34 9 -41 -3 -7 2 -16 11 -20 9 -3 18 0
21 9 4 8 13 15 21 15 8 0 13 8 12 17 -1 10 -1 24 0 31 1 14 41 17 41 2 0 -5 7
-10 16 -10 20 0 49 29 39 38 -4 4 -10 1 -12 -5 -8 -22 -43 -15 -43 7 0 13 7
20 20 20 11 0 20 5 20 10 0 6 -9 10 -20 10 -11 0 -20 -4 -20 -10 0 -5 -9 -10
-19 -10 -12 0 -25 -12 -33 -30 -14 -33 -43 -40 -50 -12 -6 21 -38 26 -38 5 0
-14 -16 -18 -23 -5 -2 4 -2 1 -1 -5 2 -7 -1 -13 -6 -13 -6 0 -10 16 -10 36 0
21 4 33 10 29 6 -3 10 -1 10 4 0 6 -6 11 -12 11 -10 0 -9 3 1 9 11 7 11 9 0
14 -12 5 -11 8 1 17 12 9 12 13 2 17 -9 3 -2 13 20 28 53 35 117 64 124 54 3
-5 -1 -9 -9 -9 -21 0 -13 -42 9 -51 11 -4 26 -14 33 -23 18 -21 28 -20 34 4 3
11 1 18 -4 15 -5 -4 -19 3 -31 14 -18 18 -19 21 -5 21 9 0 17 -4 17 -10 0 -23
21 -7 27 20 3 17 10 30 15 30 6 0 8 -6 5 -12 -3 -7 -8 -21 -12 -31 -5 -12 -2
-17 9 -17 10 0 13 6 10 15 -4 8 -1 15 5 15 6 0 11 -12 12 -27 0 -16 1 -62 3
-103 3 -80 -4 -100 -36 -100 -18 0 -19 -2 -7 -16 8 -10 15 -12 17 -5 2 6 7 11
12 11 5 0 8 -42 7 -94 -1 -76 -4 -93 -14 -84 -10 8 -13 6 -13 -6 0 -9 7 -16
15 -16 13 0 15 -20 15 -120 l0 -120 54 0 55 0 3 86 c2 47 -1 89 -7 95 -6 6 -1
15 13 25 12 8 22 19 22 25 0 14 -28 11 -32 -3 -3 -7 -5 9 -6 36 -1 28 3 53 9
57 8 5 8 12 -1 28 -6 12 -9 30 -7 39 3 11 7 6 12 -15 8 -34 19 -41 30 -22 4 6
-3 20 -16 32 -28 26 -50 31 -42 9 5 -11 2 -14 -10 -9 -15 6 -17 -3 -17 -75 0
-45 -2 -79 -4 -77 -10 10 -12 159 -3 168 8 8 8 11 0 11 -7 0 -10 40 -8 118 3
179 4 192 18 192 8 0 12 16 13 47 1 41 -1 44 -13 28 -11 -16 -13 -16 -13 -3 0
20 75 51 102 43 10 -4 25 -2 33 5 18 15 26 -1 10 -23 -9 -13 -23 -16 -55 -14
-24 2 -43 -1 -45 -7 -2 -6 -5 -54 -7 -106 -4 -84 -3 -90 6 -50 6 25 15 51 20
59 5 7 5 16 0 20 -5 3 -9 20 -9 36 0 24 4 30 20 28 11 -1 34 2 52 8 19 6 44 7
65 1 26 -7 32 -13 30 -30 -2 -12 2 -22 7 -22 6 0 11 5 11 10 0 6 4 10 9 10 6
0 10 -93 11 -226 0 -201 -1 -229 -17 -246 -16 -17 -16 -18 0 -12 13 5 17 1 17
-17 1 -13 1 -67 1 -119 1 -128 5 -142 38 -138 21 2 25 8 24 26 -2 13 1 21 7
17 6 -3 10 -15 10 -26 0 -15 7 -19 31 -19 29 0 30 2 29 38 -5 104 2 315 10
297 7 -16 9 -11 9 22 1 23 -4 43 -11 45 -7 3 -12 41 -13 117 -1 92 2 114 14
122 14 9 13 10 -2 5 -17 -6 -18 4 -15 177 2 139 6 181 16 179 6 -1 12 2 12 8
0 5 -4 10 -10 10 -5 0 -10 7 -10 16 0 8 5 12 10 9 6 -3 10 0 10 7 1 14 88 83
105 83 6 0 14 5 18 10 5 6 7 0 4 -12 -3 -15 0 -23 8 -23 7 0 12 7 11 16 0 9 5
19 12 21 8 3 10 -1 6 -11 -4 -12 -2 -15 9 -11 19 8 68 -34 69 -60 1 -11 -2
-40 -5 -65 -5 -32 -4 -39 3 -25 7 15 8 11 5 -20 -3 -22 -7 -163 -9 -314 -3
-150 -7 -276 -10 -278 -2 -3 0 -18 4 -34 6 -20 5 -29 -3 -29 -8 0 -8 -3 1 -9
16 -10 12 -34 -8 -43 -13 -6 -13 -7 0 -7 12 -1 14 -17 12 -93 -2 -58 -8 -95
-15 -100 -9 -6 -9 -8 1 -8 6 0 12 -9 12 -20 0 -15 7 -20 29 -20 l28 0 -5 120
c-3 89 -2 120 7 120 7 0 9 5 4 12 -9 14 -11 308 -3 308 3 0 5 97 5 216 -1 118
3 218 8 221 4 2 18 -2 31 -11 22 -14 24 -13 32 4 8 17 11 17 29 4 16 -12 17
-16 6 -23 -8 -5 -20 -7 -28 -4 -8 3 -13 -2 -13 -16 0 -24 15 -28 27 -6 11 19
59 25 55 6 -2 -7 3 -11 10 -9 15 6 16 -3 17 -172 1 -100 -2 -126 -14 -133 -8
-4 -15 -13 -15 -19 0 -7 5 -6 15 2 13 11 15 8 15 -21 0 -25 -3 -30 -10 -19 -5
8 -13 11 -17 6 -4 -4 0 -13 10 -20 14 -11 17 -31 17 -134 0 -87 -3 -122 -12
-125 -10 -4 -10 -6 0 -6 7 -1 12 -14 12 -32 0 -17 -4 -28 -10 -24 -5 3 -10 1
-10 -4 0 -6 5 -11 10 -11 6 0 10 -15 10 -34 0 -30 -3 -34 -22 -29 -14 3 -19 1
-12 -4 6 -4 11 -26 12 -47 1 -22 7 -43 14 -47 9 -6 8 -10 -4 -14 -9 -4 -19
-13 -22 -21 -4 -11 -2 -12 13 -4 15 8 20 6 24 -10 4 -17 14 -20 56 -20 48 0
51 2 51 25 0 14 4 25 9 25 5 0 12 -11 15 -25 l6 -25 325 0 326 0 -16 30 c-9
17 -14 30 -11 30 15 0 -126 319 -178 406 -81 132 -74 125 -298 337 -16 15 -34
27 -39 27 -5 0 -9 3 -9 8 0 4 -24 23 -53 42 -28 19 -58 43 -65 53 -7 9 -20 17
-28 17 -8 0 -14 4 -14 10 0 5 -11 12 -25 16 -14 3 -25 11 -25 18 0 6 -12 17
-27 23 -16 7 -58 34 -95 60 -37 27 -97 66 -133 88 -36 22 -75 47 -86 55 l-21
16 22 37 c18 29 21 48 17 83 -4 41 -13 53 -85 124 -71 70 -83 87 -112 162 -18
45 -41 101 -52 123 -30 57 -102 123 -172 156 -71 33 -82 42 -115 89 -70 101
-158 137 -291 120 -41 -5 -84 -12 -95 -15 -17 -5 -26 6 -58 71 -40 81 -130
217 -212 323 -33 41 -66 71 -97 87 -80 41 -288 75 -548 90 -71 4 -511 15 -574
14 -17 0 -18 5 -12 48 4 26 9 79 12 117 6 67 36 172 74 257 l17 39 5 -43 c12
-97 87 -231 155 -275 l22 -15 -6 84 c-8 119 9 204 64 320 26 54 49 98 52 98 3
0 17 -19 31 -41 24 -39 90 -102 155 -146 48 -32 175 -75 175 -59 0 7 -6 19
-14 25 -23 19 -45 97 -52 180 -5 59 -2 96 15 165 12 49 25 94 30 100 5 6 14
28 20 49 17 52 31 46 32 -15 3 -127 7 -126 90 27 42 77 89 165 105 195 l28 55
8 -38 c19 -92 111 -201 195 -233 54 -21 62 -14 28 21 -56 61 -86 266 -54 364
l12 36 14 -60 c18 -83 22 -90 34 -78 6 6 32 79 57 163 l47 153 61 31 c33 17
73 41 89 52 17 12 35 23 41 25 32 11 167 135 226 208 89 108 150 292 167 506
l6 80 21 -50 c12 -27 32 -81 44 -118 12 -38 24 -67 26 -65 2 3 15 60 28 129
14 68 37 167 51 219 15 52 28 104 30 115 3 11 20 81 40 155 19 74 38 155 40
180 17 145 20 196 15 301 l-5 116 40 -32 c66 -54 220 -131 288 -144 4 0 8 -1
10 -2 1 0 11 -2 22 -4 132 -20 147 -15 78 25 -146 84 -289 305 -374 580 -31
97 -61 239 -99 460 -23 131 -28 155 -30 155 -1 0 -3 15 -6 33 -7 56 -77 321
-100 377 -6 15 3 11 35 -15 24 -19 73 -56 109 -82 37 -26 72 -52 79 -58 7 -5
16 -10 22 -10 5 0 32 -12 59 -26 28 -14 58 -24 69 -22 14 2 7 12 -32 41 -62
46 -124 98 -139 115 -6 7 -18 21 -26 31 -76 88 -167 225 -244 369 -35 64 -77
142 -93 172 -17 30 -49 93 -73 140 -24 47 -46 87 -50 90 -3 3 -19 28 -34 55
-88 155 -287 407 -422 535 -84 80 -243 202 -327 252 -244 146 -726 342 -930
379 -34 6 -78 15 -98 20 -20 5 -54 9 -75 9 -36 0 -42 4 -74 52 -73 107 -199
188 -353 228 -155 39 -378 50 -562 28z m500 -66 c102 -22 218 -68 270 -108 20
-15 34 -28 32 -30 -1 -2 -21 3 -44 11 -52 18 -471 111 -538 120 -27 3 -63 9
-80 13 l-30 6 35 7 c60 11 261 0 355 -19z m-357 -16 c31 -8 100 -22 153 -31
53 -9 116 -23 140 -31 l44 -14 -45 5 c-235 24 -291 26 -479 15 -108 -6 -234
-18 -281 -26 -197 -34 -472 -120 -700 -219 -191 -83 -485 -185 -735 -255 -144
-40 -347 -65 -460 -55 -47 4 -85 10 -85 14 0 5 44 11 98 14 107 6 272 40 457
94 132 38 471 168 496 190 9 7 18 10 21 7 3 -3 29 6 56 20 99 50 366 150 488
182 200 53 324 79 429 90 204 23 312 23 403 0z m-1338 -470 c0 -2 -17 -15 -37
-27 -158 -95 -367 -258 -523 -409 -49 -48 -157 -182 -200 -250 -43 -67 -57
-92 -36 -66 18 23 21 14 5 -15 -5 -11 -15 -16 -21 -13 -7 4 -8 3 -4 -4 4 -7
13 -12 20 -12 7 0 18 -10 25 -22 7 -13 30 -35 52 -51 22 -15 37 -32 34 -37 -3
-6 1 -7 9 -4 24 9 19 -7 -19 -66 -41 -66 -46 -87 -7 -40 42 53 82 94 82 85 0
-5 18 11 39 34 l39 42 39 -43 c64 -71 109 -138 151 -228 22 -47 49 -98 59
-114 l19 -30 -37 -111 c-20 -61 -56 -149 -79 -195 -110 -217 -130 -255 -130
-248 0 4 5 19 11 35 6 15 22 56 35 91 l24 63 -30 -25 c-17 -14 -47 -28 -68
-32 -51 -10 -182 25 -285 75 -45 22 -85 38 -89 35 -13 -9 -81 -135 -119 -224
-98 -229 -241 -719 -232 -792 2 -10 -2 -18 -8 -18 -12 0 -7 93 12 274 27 252
111 533 238 796 23 46 41 92 41 103 0 10 3 16 8 14 4 -3 7 5 7 18 0 30 0 29
-61 -68 l-50 -82 -51 0 c-40 1 -58 7 -87 29 -20 15 -44 25 -51 22 -9 -3 -15 1
-15 11 0 23 -49 -48 -105 -152 -11 -22 -27 -49 -33 -60 -18 -30 -132 -274
-152 -326 -10 -26 -35 -109 -55 -185 -198 -752 -274 -942 -436 -1088 -57 -52
-80 -54 -32 -3 117 125 228 405 298 756 7 36 27 127 45 201 17 74 36 155 41
180 11 55 48 188 60 215 4 11 24 63 43 116 36 97 159 374 175 393 5 6 12 28
16 48 5 25 11 35 19 31 6 -4 4 2 -4 12 -14 18 -15 18 -18 -3 -2 -12 -8 -22
-13 -22 -5 0 -9 -4 -9 -10 0 -5 -9 -24 -21 -42 -14 -23 -19 -26 -14 -10 3 12
2 22 -3 22 -5 0 -12 -13 -15 -30 -6 -27 -27 -43 -27 -20 0 6 5 10 10 10 6 0
10 5 10 10 0 19 -15 10 -33 -21 -9 -17 -14 -36 -10 -41 3 -7 1 -8 -6 -4 -6 4
-10 14 -9 21 2 8 -1 13 -7 12 -5 -1 -10 -6 -11 -12 -3 -26 -17 -43 -32 -38
-12 5 -14 2 -8 -12 4 -11 4 -16 0 -12 -12 11 -33 -13 -27 -30 4 -10 2 -14 -4
-10 -10 6 -54 -42 -103 -113 -48 -69 -274 -270 -288 -256 -3 3 20 31 50 63
108 113 349 419 511 649 15 21 57 80 93 129 35 50 72 101 81 115 23 34 105
141 121 159 7 7 21 25 30 39 30 46 92 114 236 257 289 288 476 407 841 536 89
32 85 31 85 25z m3728 -1064 c2 -18 -3 -40 -10 -49 -11 -14 -10 -15 10 -9 42
14 82 10 97 -10 19 -25 19 -40 0 -24 -21 17 -20 -6 1 -27 11 -11 18 -13 23 -5
4 7 12 8 21 2 8 -6 11 -10 6 -10 -5 0 -1 -10 10 -21 l19 -22 -30 7 c-30 7 -30
7 -7 -9 28 -21 28 -26 -5 -62 -48 -51 -59 -56 -77 -37 -22 21 -30 12 -32 -34
-3 -55 -10 -77 -22 -76 -7 1 -18 2 -25 3 -20 2 -99 112 -93 128 3 8 2 12 -3 9
-5 -3 -21 22 -36 55 -23 53 -25 63 -13 75 20 20 84 21 106 1 25 -23 29 -22 36
9 5 17 0 33 -14 51 -22 29 -27 79 -7 86 27 12 42 1 45 -31z m-192 -211 c31
-56 64 -155 64 -193 0 -21 -8 -33 -32 -48 -54 -33 -78 -35 -122 -12 -37 21
-40 21 -52 4 -9 -12 -26 -17 -58 -17 -41 0 -46 -3 -51 -26 -14 -61 -110 -108
-162 -80 -27 14 -73 113 -73 156 0 39 29 72 70 81 45 10 50 13 50 32 0 11 6
25 14 31 11 9 19 5 39 -18 l25 -30 6 30 c8 43 51 82 81 75 25 -6 37 4 39 33 2
29 31 59 61 63 37 5 66 -19 101 -81z m-3573 5 c26 -35 47 -72 47 -82 0 -11 7
-28 15 -38 33 -44 7 -149 -53 -217 -19 -22 -64 -50 -124 -77 -76 -36 -99 -51
-127 -89 -37 -51 -72 -125 -122 -260 -18 -51 -35 -91 -36 -89 -5 5 46 236 68
306 80 257 242 610 279 610 3 0 27 -29 53 -64z m3006 -211 c17 -33 31 -65 31
-72 0 -7 4 -13 9 -13 4 0 14 -21 21 -47 6 -27 17 -59 23 -71 9 -20 8 -25 -5
-33 -10 -5 -23 -15 -30 -22 -7 -6 -35 -14 -63 -16 -27 -2 -59 -8 -70 -14 -19
-11 -56 -16 -119 -17 -17 0 -37 6 -45 15 -10 10 -11 15 -3 15 7 0 12 4 12 10
0 5 -6 7 -13 4 -9 -3 -18 9 -26 37 -11 36 -10 43 5 60 9 10 21 16 25 13 5 -3
9 5 8 18 0 13 -3 17 -6 11 -6 -17 -31 -16 -48 0 -13 13 -20 57 -16 105 1 19 7
22 39 22 27 0 33 3 22 10 -27 17 3 28 98 35 74 6 92 4 92 -6 0 -9 4 -7 11 4
13 22 10 25 48 -48z m-2312 -10 c13 -9 29 -30 37 -48 19 -41 36 -114 27 -122
-3 -4 -6 -10 -7 -13 0 -4 -5 -18 -11 -32 -5 -14 -18 -49 -28 -77 -19 -54 -28
-61 -88 -69 -47 -6 -64 3 -96 49 -16 23 -46 60 -66 82 -68 75 -60 112 33 158
37 19 89 46 116 60 57 32 55 31 83 12z m270 -101 c24 -21 63 -62 85 -91 31
-39 45 -49 55 -42 17 15 53 1 62 -24 9 -24 -13 -72 -36 -82 -18 -6 -53 16 -53
34 0 9 -4 10 -12 4 -7 -5 -33 -15 -57 -22 -25 -7 -67 -28 -95 -47 -56 -38 -95
-43 -126 -17 -30 26 -25 75 21 178 4 11 18 45 30 75 11 30 25 60 30 66 16 19
50 8 96 -32z m1509 -581 c53 -98 160 -287 204 -363 21 -36 77 -135 125 -220
48 -85 107 -185 131 -222 l43 -67 -242 -1 c-222 0 -455 -16 -499 -35 -23 -9
-23 2 1 67 58 159 191 775 191 886 0 12 2 22 5 22 2 0 21 -30 41 -67z m-1941
-280 c-21 -81 -48 -186 -62 -233 -14 -47 -30 -103 -36 -124 -6 -22 -27 -82
-47 -135 l-36 -96 -146 -2 -146 -2 75 107 c41 59 135 199 208 312 74 113 141
213 150 223 9 10 25 34 36 55 31 54 31 54 36 48 3 -2 -12 -71 -32 -153z m1810
75 c-13 -88 -87 -408 -128 -557 l-43 -154 -79 -32 c-44 -18 -81 -32 -82 -31
-1 1 31 67 71 147 69 136 186 431 237 597 12 39 24 72 26 72 3 0 2 -19 -2 -42z
m-2072 -776 c15 -1 27 -6 27 -11 0 -10 -116 -251 -151 -314 -12 -20 -29 -41
-38 -46 -9 -5 -59 -11 -111 -15 -144 -10 -212 -16 -242 -21 -20 -3 -28 0 -28
10 0 8 5 15 10 15 6 0 10 5 10 10 0 6 34 63 75 126 41 63 75 117 75 120 0 4
60 93 81 120 7 9 186 13 292 6z m2814 -49 c20 -32 68 -107 108 -168 74 -115
125 -200 125 -209 0 -3 -6 -3 -12 -1 -22 7 -288 44 -373 51 -44 4 -89 10 -100
15 -26 10 -15 11 110 11 74 0 91 2 65 8 -46 11 -600 19 -665 10 -40 -6 -29 -8
58 -9 64 0 107 -5 107 -11 0 -5 -19 -11 -42 -11 -323 -11 -540 -54 -633 -127
-48 -37 -75 -77 -75 -110 0 -10 -6 -38 -14 -63 -8 -24 -17 -64 -21 -89 -9 -72
-13 -73 -85 -38 -62 31 -70 32 -190 32 -108 0 -132 -4 -175 -23 -27 -12 -58
-30 -68 -38 -20 -19 -25 -16 -32 23 -5 27 -1 32 62 73 206 134 433 365 593
603 46 69 60 81 60 51 0 -21 -99 -226 -155 -323 -69 -118 -88 -155 -73 -140
28 29 186 246 241 331 59 92 59 92 198 123 l27 6 -15 -41 c-15 -45 -10 -67 6
-28 6 13 21 36 33 50 25 29 91 44 313 73 158 21 168 22 392 24 l193 3 37 -58z
m-1992 0 c-3 -27 -9 -66 -12 -88 -8 -59 -61 -316 -66 -321 -2 -3 -37 6 -76 19
l-71 24 19 24 c10 13 42 63 70 112 46 77 68 122 122 245 7 17 16 32 18 32 2 0
0 -21 -4 -47z m-238 -43 c7 0 4 -20 -12 -57 -53 -133 -77 -188 -83 -195 -4 -3
-36 0 -71 7 -36 8 -105 15 -155 16 -50 1 -95 4 -99 6 -4 2 49 62 118 133 l126
128 82 -19 c45 -10 87 -19 94 -19z m-2418 -363 c1 -140 -14 -293 -36 -362 -17
-54 -73 -165 -84 -165 -3 0 4 39 16 88 13 48 29 141 35 207 6 66 20 179 31
250 10 72 19 137 20 145 4 51 17 -64 18 -163z m3787 -112 c-65 -61 -70 -72
-10 -24 48 39 111 69 144 69 21 0 18 -5 -25 -31 -73 -45 -185 -131 -185 -142
0 -5 9 -7 20 -4 29 8 25 -15 -14 -86 -19 -34 -40 -75 -46 -92 -11 -29 -11 -29
10 -10 20 18 20 18 9 -14 -17 -50 -6 -46 35 11 37 54 116 145 116 135 0 -3 -7
-36 -16 -74 -22 -94 -14 -291 15 -385 23 -72 33 -85 49 -65 10 12 6 46 -14
122 -4 17 -3 18 6 5 9 -12 11 -5 7 30 -3 25 -3 37 0 28 2 -10 8 -18 11 -19 4
0 24 -2 44 -3 33 -1 37 1 42 27 8 39 28 23 46 -35 32 -104 68 -138 147 -140
56 -2 143 67 143 113 0 23 18 61 34 71 26 18 33 8 26 -37 -6 -39 -5 -43 8 -32
13 10 14 9 10 -3 -3 -8 2 -21 11 -28 9 -8 11 -11 4 -8 -6 4 -14 2 -18 -4 -4
-6 5 -10 19 -10 16 0 26 -6 26 -15 0 -8 5 -14 12 -12 6 1 12 -11 12 -28 1 -20
6 -30 16 -30 21 0 68 144 81 246 17 137 -15 295 -75 374 l-26 34 60 -28 c121
-55 242 -158 284 -244 29 -57 31 -83 12 -179 -7 -38 -10 -68 -6 -68 4 0 27 25
51 56 94 121 100 126 119 109 18 -17 34 -20 25 -5 -3 5 0 18 7 29 10 16 7 28
-15 70 -14 28 -22 51 -17 51 19 0 10 18 -34 72 -36 44 -117 109 -251 202 -25
18 -11 35 14 19 11 -7 22 -8 28 -2 11 11 190 -34 209 -53 23 -23 84 -184 94
-246 27 -169 21 -216 -55 -454 -73 -230 -141 -351 -237 -423 -93 -70 -159 -84
-423 -91 -405 -11 -650 74 -764 265 -39 66 -98 201 -121 276 -58 198 -71 310
-46 415 27 119 33 137 62 195 44 89 116 122 299 140 39 4 72 9 74 11 2 2 7 4
10 4 3 -1 -21 -25 -53 -55z m-2396 31 c0 -2 -28 -22 -62 -44 -35 -23 -79 -56
-98 -73 -19 -17 -55 -48 -79 -68 -24 -20 -53 -49 -64 -66 -26 -41 -20 -26 30
76 51 104 90 149 130 150 47 2 77 7 103 18 27 11 40 13 40 7z m796 -17 c23
-11 68 -45 98 -76 31 -31 56 -51 56 -45 0 11 -82 94 -126 127 -19 14 -19 14 1
15 42 0 229 -40 251 -55 28 -18 28 -13 8 -61 l-16 -39 32 35 c31 34 32 35 47
15 17 -23 50 -96 59 -131 4 -16 0 -31 -11 -44 -16 -18 -16 -18 3 -13 27 7 36
-35 35 -167 -1 -100 -6 -131 -48 -285 -23 -83 -90 -241 -127 -298 -55 -86
-190 -179 -298 -205 -57 -13 -227 -40 -260 -40 -348 -5 -448 2 -532 35 -110
43 -184 121 -254 268 -60 129 -131 319 -140 378 l-7 42 23 -20 c22 -19 23 -19
17 -1 -4 10 -2 25 4 32 7 9 8 14 1 14 -6 0 -12 -5 -14 -12 -3 -7 -7 -8 -10 -3
-3 6 0 16 7 22 11 10 19 6 42 -19 90 -101 167 -176 204 -196 23 -13 38 -18 33
-10 -5 7 -26 40 -48 72 -42 64 -110 205 -103 213 3 2 22 -17 43 -43 22 -26 49
-59 61 -73 l22 -26 -6 91 c-5 85 -4 95 21 150 30 66 65 106 146 168 46 36 144
96 156 96 2 0 -8 -16 -21 -36 -31 -45 -44 -93 -60 -211 -10 -79 -9 -105 6
-190 9 -54 29 -124 43 -157 22 -50 28 -57 41 -46 9 7 13 21 10 31 -8 24 30 77
38 55 3 -8 -1 -17 -9 -20 -8 -3 -14 -13 -14 -23 1 -17 1 -17 11 0 6 9 14 15
19 12 5 -3 7 3 5 15 -2 11 0 22 6 25 5 4 9 -3 9 -13 0 -15 5 -19 20 -15 11 3
20 6 20 7 0 0 -9 29 -19 64 -11 34 -17 62 -14 62 10 0 59 -66 74 -100 31 -70
113 -111 179 -91 53 16 104 76 120 140 11 46 14 51 34 45 29 -9 37 -24 31 -58
-4 -23 -2 -26 8 -17 10 8 14 7 14 -4 0 -8 -4 -15 -9 -15 -4 0 -8 -4 -8 -10 0
-5 8 -10 18 -10 13 0 14 -2 3 -9 -7 -5 -10 -14 -6 -21 6 -9 9 -9 16 1 6 10 9
8 9 -9 0 -12 5 -31 12 -41 15 -24 7 -43 -28 -61 -16 -8 -53 -38 -82 -67 -35
-35 -66 -56 -94 -64 -87 -23 -185 11 -260 89 -24 25 -37 42 -30 38 6 -4 12 -2
12 3 0 6 -11 11 -24 11 -13 0 -31 3 -40 6 -29 11 -17 -14 36 -71 54 -60 94
-84 171 -105 57 -15 153 -8 203 16 55 26 122 102 158 179 52 111 61 156 60
305 0 110 -4 147 -22 200 l-21 65 57 -60 c32 -33 72 -78 90 -100 l33 -40 -16
39 c-15 39 -15 39 5 21 28 -25 26 -15 -20 75 -40 80 -48 110 -30 110 19 0 10
15 -23 37 -17 12 -45 34 -60 49 -15 14 -47 37 -70 50 -53 30 -22 33 39 3z
m3480 -198 c24 -42 56 -112 69 -156 26 -86 47 -198 40 -218 -2 -7 -6 -37 -9
-67 -23 -267 -174 -493 -424 -634 -101 -57 -240 -105 -321 -111 -39 -3 -71 -2
-71 2 0 12 78 159 114 213 33 50 39 54 80 57 24 2 57 8 72 13 21 7 10 8 -38 4
-79 -7 -82 -2 -38 62 16 24 34 62 41 83 7 22 17 39 23 38 6 -1 11 7 11 18 0
19 43 140 71 199 8 16 11 32 8 37 -10 16 16 9 69 -18 56 -28 146 -53 175 -48
9 2 22 4 27 4 6 1 -8 10 -30 20 -22 10 -55 33 -73 52 -60 61 -101 166 -72 184
6 3 10 12 10 20 0 17 52 135 60 135 3 0 13 -13 22 -28 12 -20 17 -53 17 -117
0 -48 4 -92 9 -97 6 -6 16 30 26 89 9 54 18 105 20 113 3 8 5 17 5 20 1 3 5 1
9 -5 16 -22 62 -58 62 -48 0 5 -16 31 -37 57 l-36 46 18 84 c21 103 29 103 91
-3z m-5294 -114 c-9 -23 -8 -26 2 -18 10 9 22 -15 55 -112 23 -67 45 -134 48
-149 7 -35 -29 -109 -75 -156 l-36 -35 35 5 c39 7 163 89 180 119 5 11 14 17
20 14 5 -4 9 0 10 7 0 9 2 8 6 -2 4 -8 24 -43 45 -78 21 -34 38 -65 38 -68 0
-3 16 -30 36 -61 35 -54 35 -57 18 -71 -18 -13 -18 -14 1 -8 17 5 29 -5 60
-46 21 -29 52 -70 68 -91 l29 -39 -48 2 c-89 3 -100 -3 -19 -10 43 -5 81 -12
82 -17 2 -5 41 -64 87 -133 47 -68 82 -128 79 -133 -3 -5 -10 -4 -16 2 -6 6
-35 11 -65 11 -31 0 -86 11 -130 26 -296 98 -534 317 -629 578 -56 154 -11
501 80 614 18 22 52 -114 39 -151z m1644 149 c34 -4 42 -14 49 -56 8 -49 -7
-74 -42 -65 -16 4 -23 1 -23 -10 0 -22 -14 -19 -49 11 -35 29 -39 54 -13 80 9
10 18 22 18 28 1 6 2 15 3 20 0 4 9 5 19 1 9 -4 26 -8 38 -9z m2424 -24 c30
-49 25 -102 -11 -102 -11 0 -28 -5 -38 -12 -16 -10 -25 -7 -56 16 -31 24 -36
32 -30 55 4 14 10 28 13 31 4 3 7 11 8 18 1 6 2 16 3 21 0 5 21 8 46 7 40 -1
48 -5 65 -34z m-1307 -241 c54 -13 84 -45 102 -110 44 -163 98 -304 175 -460
28 -56 109 -172 131 -189 10 -7 24 -19 32 -27 33 -33 160 -97 239 -121 137
-42 514 -60 716 -35 109 14 245 49 255 67 4 8 18 14 29 14 12 0 28 6 37 14 58
53 101 99 97 103 -3 3 6 19 19 35 14 16 25 35 25 41 0 8 3 8 11 0 8 -8 6 -19
-5 -42 -9 -17 -16 -33 -16 -36 1 -8 -111 -231 -165 -330 -43 -78 -87 -150
-152 -245 -56 -81 -191 -221 -302 -312 -16 -13 -85 -59 -216 -142 -49 -32
-101 -66 -115 -76 -14 -9 -35 -20 -47 -24 -12 -4 -27 -13 -33 -21 -7 -8 -19
-15 -27 -15 -8 0 -29 -10 -46 -22 -95 -68 -546 -281 -672 -318 -128 -38 -143
-41 -190 -35 -48 6 -147 34 -190 54 -11 5 -51 22 -89 36 -38 15 -77 31 -85 35
-9 5 -43 21 -76 36 -164 73 -389 192 -570 301 -124 75 -118 71 -225 143 -273
185 -397 332 -657 780 -31 52 -70 118 -88 145 -17 28 -46 73 -63 100 -17 28
-36 56 -42 63 -6 6 -8 12 -5 12 4 0 -1 7 -9 16 -18 17 -21 44 -6 44 5 0 7 -8
3 -17 -5 -14 -3 -16 7 -6 10 9 21 -2 53 -55 121 -200 202 -273 353 -317 110
-32 144 -35 374 -39 280 -5 443 17 590 77 99 40 134 63 203 132 96 98 207 337
271 585 l32 125 44 23 c38 19 60 22 150 22 58 0 122 -4 143 -9z m708 -2112
c-26 -204 -33 -748 -12 -869 28 -162 102 -294 184 -328 15 -6 27 -16 27 -21 0
-5 12 -11 28 -14 15 -2 86 -31 158 -62 l132 -58 -45 -56 c-51 -65 -119 -149
-183 -230 -75 -93 -131 -144 -217 -194 -411 -241 -729 -306 -1153 -236 -152
25 -375 117 -598 248 -73 42 -130 92 -167 145 -18 25 -47 61 -116 143 -115
137 -139 167 -139 173 0 3 37 21 83 40 121 49 267 120 287 140 9 9 24 19 32
23 9 3 22 18 30 34 8 15 19 37 25 48 35 65 52 121 60 190 2 28 9 70 13 95 12
65 1 586 -15 729 -3 25 -8 65 -11 89 -4 23 -4 42 0 42 6 0 126 -58 161 -78 19
-10 92 -44 197 -91 86 -38 252 -98 333 -121 99 -28 157 -24 286 20 131 45 219
83 469 203 85 41 156 74 157 73 2 -2 -1 -36 -6 -77z m-2311 -404 c-52 -7 -131
-19 -175 -25 -78 -11 -146 -38 -161 -62 -13 -21 -5 -67 22 -125 14 -31 23 -57
21 -59 -2 -2 -18 19 -36 46 -18 28 -34 50 -35 50 -2 0 -10 -8 -17 -17 -8 -9
-9 -14 -4 -11 6 4 17 2 25 -3 13 -8 13 -10 1 -18 -11 -7 -9 -11 9 -21 12 -6
19 -14 17 -17 -3 -2 -14 0 -25 6 -15 8 -23 5 -40 -14 -17 -20 -21 -34 -17 -70
4 -44 4 -45 -25 -45 -20 0 -30 5 -30 15 0 8 -9 15 -20 15 -11 0 -20 -6 -20
-14 0 -15 42 -26 101 -26 28 0 39 -4 39 -15 0 -8 -4 -15 -10 -15 -5 0 -10 -6
-10 -14 0 -8 -6 -16 -12 -19 -7 -2 -10 -7 -7 -11 11 -12 39 6 39 24 0 14 9 20
33 22 30 3 32 5 30 38 0 19 1 29 4 21 5 -11 7 -11 14 0 7 11 9 11 9 1 0 -8 5
-10 13 -6 7 4 9 3 4 -2 -5 -5 -13 -10 -18 -10 -5 -1 -12 -2 -15 -3 -3 0 2 -8
11 -17 9 -9 18 -14 22 -11 7 8 32 -16 26 -26 -3 -4 1 -16 9 -25 12 -15 11 -16
-5 -3 -13 10 -21 11 -29 3 -14 -14 -1 -32 23 -32 13 0 19 -7 20 -22 l0 -23 9
23 c5 12 15 22 22 22 9 0 9 -3 2 -8 -6 -4 -13 -15 -17 -24 -4 -12 -17 -18 -37
-18 -20 0 -30 -5 -30 -15 0 -21 30 -31 41 -14 6 10 9 10 9 2 0 -7 8 -13 18
-13 21 -1 52 -23 52 -38 0 -6 6 -9 13 -7 6 3 17 -5 22 -17 6 -14 19 -23 32
-23 14 0 31 -13 47 -37 21 -32 22 -36 6 -25 -11 6 -20 17 -20 24 0 7 -2 13 -4
13 -2 0 -12 3 -22 7 -12 4 -15 3 -10 -5 5 -8 0 -12 -12 -12 -22 0 -37 -26 -21
-36 5 -3 21 1 34 10 24 16 24 16 21 -18 -2 -25 1 -33 11 -29 8 3 12 12 9 19
-3 8 -2 14 3 14 14 0 22 -76 11 -104 -11 -29 -10 -29 23 -17 22 8 25 15 23 50
-3 49 1 51 15 11 6 -16 15 -28 19 -25 5 3 13 -3 19 -13 9 -16 6 -19 -19 -17
l-29 2 25 -43 25 -43 -33 -4 c-30 -3 -29 -4 8 -5 41 -2 62 -21 48 -43 -3 -6
-1 -16 6 -24 8 -9 8 -15 0 -20 -8 -5 -8 -11 1 -21 16 -19 26 -18 32 6 3 13 10
18 21 14 10 -4 18 0 22 10 9 22 21 20 30 -6 4 -15 1 -25 -10 -34 -11 -8 -13
-14 -6 -19 5 -3 8 -11 4 -16 -8 -14 15 -39 36 -39 10 0 21 6 23 13 3 6 4 -1 3
-18 -1 -22 -8 -31 -26 -36 -23 -6 -23 -7 -3 -8 12 -1 25 4 28 9 4 6 10 8 15 5
5 -3 12 0 16 6 4 7 3 9 -3 6 -6 -4 -10 4 -10 18 0 14 3 25 8 25 5 0 8 -3 7 -7
-1 -5 17 -28 40 -53 29 -31 38 -47 29 -52 -11 -7 -10 -9 12 -12 5 0 12 -4 16
-8 4 -4 -6 -5 -22 -3 -25 3 -29 0 -28 -17 1 -11 9 -24 18 -30 18 -10 24 -58 7
-58 -5 0 -10 -9 -10 -20 0 -11 5 -20 10 -20 6 0 10 7 10 15 0 20 16 19 24 -1
3 -8 11 -12 17 -9 6 4 8 13 5 21 -3 8 -1 14 4 14 18 0 18 -16 -2 -40 -13 -17
-21 -21 -25 -12 -10 24 -23 0 -23 -44 0 -24 -4 -44 -9 -44 -5 0 -23 -3 -40 -6
-20 -4 -31 -3 -31 5 0 6 9 11 20 11 11 0 20 7 20 15 0 19 -36 20 -43 1 -3 -8
-19 -17 -36 -21 -28 -6 -31 -10 -31 -47 0 -37 2 -40 24 -34 34 8 86 -4 86 -20
0 -10 13 -14 40 -14 29 0 40 -4 40 -15 0 -19 9 -19 51 0 19 8 27 14 18 15 -23
0 -73 27 -60 31 6 2 -16 4 -50 4 -46 0 -64 4 -73 17 -7 10 -21 18 -30 18 -9 0
-16 7 -16 15 0 19 29 19 36 0 5 -11 23 -15 75 -15 39 0 69 -4 69 -10 0 -16 30
-12 48 6 12 13 17 14 20 4 3 -7 -6 -21 -18 -30 -16 -12 -19 -19 -11 -24 6 -4
19 2 29 14 16 20 19 20 31 6 8 -10 10 -23 5 -33 -7 -16 -8 -15 -11 5 -3 12 -9
22 -14 22 -12 0 -12 -27 1 -35 6 -3 10 -15 10 -26 0 -10 5 -19 10 -19 6 0 10
7 10 15 0 8 4 15 9 15 11 0 22 -37 12 -43 -3 -2 0 -2 7 -1 14 4 54 -55 46 -68
-3 -4 -14 -8 -25 -8 -10 0 -19 -7 -19 -15 0 -19 36 -20 43 -1 3 7 15 16 27 19
16 4 20 1 18 -11 -2 -9 -12 -18 -23 -20 -11 -3 -23 -10 -28 -18 -4 -7 -23 -16
-41 -20 -22 -4 -36 -13 -39 -25 -7 -25 -37 -25 -37 1 0 11 -4 20 -10 20 -5 0
-10 -6 -10 -14 0 -8 5 -18 10 -21 12 -8 13 -45 1 -45 -5 0 -11 9 -14 20 -6 25
-25 26 -34 3 -13 -35 -33 -48 -54 -35 -22 14 -49 16 -49 3 0 -5 9 -11 21 -14
12 -3 19 -12 17 -19 -5 -15 -68 -21 -68 -7 0 5 7 9 15 9 8 0 15 5 15 10 0 6
-11 8 -25 4 -15 -4 -25 -2 -25 5 0 6 -10 12 -22 12 -13 1 -2 6 25 11 47 10 65
28 27 28 -11 0 -20 -4 -20 -10 0 -5 -13 -10 -30 -10 -16 0 -30 -4 -30 -10 0
-5 -8 -7 -17 -4 -15 5 -15 4 -3 -4 8 -6 18 -8 24 -5 5 3 6 1 2 -5 -5 -8 -2
-10 8 -6 16 6 23 -11 8 -20 -7 -4 -104 65 -140 101 -8 7 -22 18 -32 23 -15 8
-18 17 -13 40 5 27 3 30 -18 29 -17 -1 -19 -3 -6 -6 18 -5 24 -33 7 -33 -5 0
-10 5 -10 11 0 5 -4 7 -10 4 -5 -3 -10 -2 -10 2 0 5 -12 16 -27 25 -21 13 -23
18 -10 18 10 0 17 8 17 20 0 15 7 20 25 20 31 0 34 -29 5 -37 -33 -9 -23 -20
17 -19 37 1 38 0 36 -34 -1 -19 1 -25 4 -12 2 12 11 22 19 22 8 0 14 7 14 15
0 8 -7 15 -15 15 -23 0 -18 17 8 24 20 6 18 8 -17 21 -21 7 -42 19 -46 26 -5
7 -19 9 -36 6 -16 -4 -23 -4 -16 -1 6 3 12 17 12 30 0 17 -6 24 -19 24 -11 0
-23 -4 -26 -10 -11 -18 -35 -10 -36 13 l-2 22 -4 -22 c-6 -30 -23 -29 -23 0 0
16 -9 28 -25 35 -21 10 -25 9 -25 -4 0 -11 -6 -14 -16 -10 -12 5 -14 1 -10
-17 l6 -22 -12 23 c-6 13 -17 21 -24 18 -14 -5 -40 21 -30 31 3 3 -2 15 -11
26 -15 17 -15 19 -2 15 9 -4 16 -1 16 8 0 17 -13 18 -22 3 -4 -6 -14 -8 -24
-4 -9 3 -3 -6 13 -20 16 -14 25 -25 20 -25 -5 0 -20 10 -34 23 -14 12 -51 42
-84 67 -32 24 -53 46 -46 48 7 3 -1 18 -22 40 -18 19 -27 32 -20 27 13 -7 62
12 62 24 0 3 -17 16 -38 29 l-37 23 3 84 3 84 37 4 37 4 -42 1 c-37 2 -43 -1
-43 -18 0 -25 -53 -54 -83 -44 -20 6 -20 6 -4 -11 12 -12 29 -16 52 -13 43 5
45 -3 4 -21 -25 -11 -36 -11 -50 -2 -10 6 -28 11 -39 11 -12 0 -18 5 -15 10 3
6 -1 10 -9 10 -9 0 -16 5 -16 12 0 6 -3 9 -6 6 -3 -4 -1 -16 6 -27 9 -18 8
-21 -12 -21 -19 0 -20 2 -8 10 10 6 11 10 3 10 -7 0 -13 11 -13 25 0 20 5 25
28 26 15 0 21 3 15 6 -7 2 -13 11 -13 18 0 34 -64 28 -73 -7 -5 -16 -9 -19
-19 -10 -27 22 -2 122 30 122 12 0 12 4 -4 19 -10 10 -24 16 -30 14 -6 -2 -15
8 -18 23 -8 32 3 164 14 164 5 0 6 9 3 20 -6 23 -23 27 -23 6 0 -21 -17 -28
-24 -10 -3 8 -2 12 4 9 6 -3 10 1 10 10 0 12 -6 15 -20 10 -43 -14 -35 82 16
195 40 90 88 184 100 200 7 8 22 33 34 54 12 22 56 82 97 134 88 109 109 121
253 146 96 16 138 20 290 23 l85 1 -95 -13z m3531 -337 c0 -29 2 -30 10 -13 8
17 9 16 6 -8 -3 -16 0 -27 7 -26 29 3 56 -2 56 -11 0 -5 -18 -10 -40 -10 -33
0 -40 -3 -40 -20 0 -17 7 -20 40 -20 38 0 40 -2 40 -30 0 -35 -10 -38 -35 -10
-10 11 -24 20 -32 20 -7 0 -13 5 -13 10 0 6 -4 10 -10 10 -5 0 -10 -7 -10 -15
0 -8 -7 -15 -15 -15 -9 0 -18 7 -21 15 -12 30 -27 15 -21 -21 6 -38 0 -64 -14
-64 -5 0 -9 23 -9 50 0 39 -4 50 -16 50 -8 0 -12 5 -9 10 5 8 11 7 21 -1 8 -6
18 -8 22 -4 4 4 1 10 -5 12 -20 7 -15 23 7 23 13 0 20 -7 20 -20 0 -13 7 -20
20 -20 13 0 20 7 20 19 0 11 6 21 13 24 7 2 8 8 3 13 -5 5 -11 4 -13 -3 -7
-20 -37 -15 -53 7 -8 11 -21 20 -28 20 -8 0 -12 6 -9 13 2 7 16 11 35 9 27 -3
32 0 32 17 0 14 6 21 20 21 16 0 20 -7 21 -32z m-4334 -211 c-6 -19 -30 -25
-132 -35 -94 -9 -101 -11 -125 -40 -13 -17 -31 -57 -40 -88 -19 -73 -40 -87
-75 -54 -20 19 -28 22 -34 11 -6 -9 -11 -10 -15 -2 -15 24 -125 -69 -158 -133
-20 -39 -47 -108 -53 -136 -12 -57 -63 -136 -119 -183 -33 -29 -76 -67 -95
-85 -26 -25 -36 -30 -42 -20 -24 37 -2 82 81 163 63 62 88 100 110 170 38 121
94 191 190 239 88 43 96 50 149 114 60 72 88 85 201 92 111 6 162 2 157 -13z
m4859 -463 c21 -10 34 -24 34 -35 0 -15 7 -19 40 -19 33 0 40 -3 40 -19 0 -12
-8 -21 -22 -24 l-23 -4 23 -8 c18 -6 22 -15 22 -45 0 -22 -5 -40 -12 -43 -7
-2 -9 -8 -5 -13 4 -5 12 -2 16 5 7 10 13 9 29 -5 16 -13 19 -21 10 -31 -6 -7
-17 -13 -24 -13 -8 0 -14 -4 -14 -10 0 -5 9 -10 20 -10 11 0 20 5 20 10 0 17
29 11 55 -12 28 -24 32 -38 11 -38 -7 0 -16 9 -19 20 -3 12 -14 20 -26 20 -14
0 -21 -6 -21 -20 0 -13 -7 -20 -20 -20 -11 0 -20 -4 -20 -10 0 -13 16 -13 39
2 28 17 46 4 49 -36 2 -28 0 -34 -13 -30 -10 4 -15 0 -15 -15 0 -11 -13 -35
-29 -53 l-29 -32 2 29 c2 17 6 38 10 48 5 9 6 24 2 32 -6 17 -56 21 -56 5 0
-5 9 -10 20 -10 11 0 20 -7 20 -15 0 -8 -6 -15 -12 -15 -15 0 -38 -45 -38 -72
0 -12 5 -15 17 -11 14 6 14 3 -3 -20 -23 -32 -50 -43 -69 -27 -9 7 -15 8 -20
0 -3 -5 -2 -10 3 -10 24 0 18 -25 -6 -27 -16 0 -20 2 -12 7 10 6 10 9 -1 16
-7 4 -14 3 -16 -2 -6 -18 -22 -38 -26 -34 -2 3 -2 26 1 52 l4 47 46 3 47 3 3
42 c2 29 8 43 20 46 9 3 -5 3 -33 0 -56 -5 -145 -33 -145 -45 0 -4 18 -8 40
-8 42 0 56 -16 18 -22 -20 -3 -22 -8 -19 -50 2 -38 -1 -48 -13 -48 -12 0 -16
10 -16 40 0 22 -4 40 -8 40 -5 0 -7 -13 -4 -30 3 -23 0 -30 -12 -30 -9 0 -16
7 -16 15 0 8 -7 15 -15 15 -8 0 -15 -7 -15 -15 0 -8 7 -15 15 -15 8 0 15 -4
15 -10 0 -5 7 -10 15 -10 8 0 15 -4 15 -10 0 -5 -7 -10 -15 -10 -8 0 -15 5
-15 10 0 6 -9 10 -20 10 -15 0 -22 9 -27 30 -3 17 -8 29 -10 26 -10 -10 10
-76 23 -76 8 0 14 -9 14 -20 0 -24 -16 -26 -36 -5 -21 20 -31 19 -37 -5 -3
-13 -10 -18 -21 -14 -9 3 -16 1 -16 -5 0 -6 -9 -11 -20 -11 -11 0 -20 -4 -20
-10 0 -5 -9 -10 -20 -10 -16 0 -20 7 -20 33 l0 32 -20 -25 -20 -25 -20 25
c-20 25 -20 25 -20 3 0 -13 -9 -28 -20 -35 -11 -7 -20 -18 -20 -25 0 -7 -4
-13 -10 -13 -5 0 -10 7 -10 15 0 8 4 15 8 15 4 0 8 25 7 55 0 30 -4 55 -10 55
-16 0 -37 -52 -25 -64 5 -5 10 -19 9 -30 0 -12 -3 -15 -6 -8 -8 20 -33 14 -33
-8 0 -11 7 -20 15 -20 13 0 20 -18 16 -42 0 -5 16 -8 37 -8 20 0 44 -4 51 -9
21 -13 -68 -2 -96 11 -13 6 -23 20 -23 30 0 12 -7 18 -24 18 -18 0 -25 6 -28
23 -2 16 -9 21 -25 19 -12 -2 -24 1 -27 7 -3 5 3 7 14 4 22 -6 28 12 8 20 -10
4 -10 6 -1 6 7 1 18 -8 25 -19 26 -42 69 -9 53 40 -6 18 2 25 26 22 4 -1 9 8
12 18 3 11 1 18 -4 14 -5 -3 -9 -1 -9 3 0 14 40 44 50 38 6 -3 7 0 4 8 -3 8 2
20 11 27 14 12 18 11 27 -1 8 -12 9 -12 5 1 -2 8 14 34 36 57 35 37 41 40 54
27 9 -8 12 -18 9 -22 -4 -3 -11 0 -16 8 -5 8 -12 11 -16 7 -27 -27 64 -30 93
-3 27 25 29 36 8 36 -9 0 -18 7 -21 15 -4 8 -10 12 -15 9 -5 -3 -2 -12 6 -20
8 -9 15 -21 15 -27 0 -7 -4 -6 -10 3 -9 13 -11 13 -20 0 -9 -13 -11 -13 -19 0
-7 10 -6 17 2 22 7 4 9 8 5 8 -4 0 4 11 18 25 26 27 44 34 25 11 -9 -10 -8
-15 4 -20 8 -3 22 -3 30 0 11 5 13 2 9 -10 -4 -12 0 -16 15 -16 12 0 21 -4 21
-10 0 -5 18 -14 39 -20 22 -6 41 -16 44 -23 2 -6 8 -9 12 -5 11 10 -33 48 -56
48 -9 0 -34 16 -53 35 -20 19 -41 35 -46 35 -6 0 -10 5 -10 10 0 6 7 10 15 10
8 0 15 -3 15 -8 0 -9 40 -35 46 -29 7 7 -8 37 -16 32 -4 -3 -13 2 -19 9 -10
11 -8 16 8 21 13 4 18 11 14 22 -4 10 -2 14 4 10 6 -4 14 -1 16 5 3 7 6 3 6
-9 1 -12 -5 -23 -11 -26 -7 -2 -9 -8 -5 -13 14 -15 39 29 35 62 -2 18 1 31 8
31 6 0 9 -9 6 -19 -2 -10 1 -18 8 -18 8 0 11 -11 8 -30 -3 -16 0 -30 5 -30 5
0 7 -10 4 -23 -4 -12 -2 -29 3 -37 7 -11 10 -3 10 28 0 23 5 42 10 42 6 0 10
-18 10 -40 0 -22 5 -40 10 -40 6 0 10 18 10 40 0 23 5 40 11 40 8 0 10 -17 7
-50 -3 -27 -2 -50 2 -50 12 0 19 52 13 103 -5 39 -3 47 11 47 9 0 16 7 16 16
0 13 -10 15 -60 12 -66 -3 -80 6 -25 16 34 7 49 26 20 26 -8 0 -15 5 -15 10 0
6 4 10 9 10 5 0 16 3 25 6 12 5 16 -1 16 -22 l0 -29 20 25 20 25 20 -25 20
-25 0 27 c0 17 6 28 18 31 9 3 0 5 -20 6 -37 1 -38 2 -38 40 0 30 -4 40 -20
44 -11 3 -20 10 -20 16 0 15 6 14 46 -5z m-5101 -76 c0 -9 4 -20 8 -24 4 -4 7
2 7 14 0 19 2 21 19 10 11 -7 17 -16 15 -20 -3 -5 8 -11 25 -14 45 -9 27 -25
-22 -19 -38 5 -39 4 -12 -5 17 -5 44 -9 62 -8 30 2 44 -5 91 -46 21 -19 22
-21 5 -28 -12 -6 -9 -7 10 -3 15 3 27 1 27 -5 0 -5 5 -10 12 -10 7 0 26 -13
43 -29 16 -16 62 -46 100 -66 89 -48 155 -93 155 -105 0 -6 4 -10 10 -10 5 0
25 -11 44 -24 33 -22 34 -23 11 -23 -14 0 -22 3 -19 8 2 5 -7 11 -21 15 -14 3
-29 14 -34 23 -15 26 -26 3 -11 -23 10 -19 25 -27 64 -34 41 -8 45 -10 19 -11
-40 -1 -44 -21 -5 -21 l27 -1 -30 -14 c-29 -13 -30 -13 -5 -14 22 -1 23 -3 7
-12 -9 -5 -21 -8 -26 -5 -5 3 -11 -14 -13 -39 -3 -40 5 -61 14 -35 2 5 18 6
41 1 45 -11 47 -7 7 14 -39 20 -38 32 5 52 19 9 32 21 28 26 -3 5 4 4 16 -2
15 -8 27 -9 40 -1 16 8 26 5 50 -16 17 -14 28 -30 25 -36 -3 -5 2 -16 12 -24
17 -13 16 -13 -8 -3 -28 12 -38 29 -17 29 5 0 7 5 3 12 -6 9 -9 9 -12 0 -2 -7
-8 -12 -14 -12 -6 0 -8 6 -5 14 3 8 -2 20 -11 27 -14 11 -15 11 -5 0 6 -7 9
-19 6 -26 -2 -7 9 -23 26 -36 16 -12 35 -35 42 -50 6 -16 17 -29 23 -30 6 0
-2 -7 -19 -14 -19 -9 -24 -14 -12 -15 21 0 23 -30 2 -30 -8 0 -15 -4 -15 -10
0 -18 25 -11 39 11 11 18 11 23 -1 31 -8 5 -2 6 17 2 27 -7 64 -39 65 -56 0
-11 40 -10 40 1 0 5 -9 11 -20 14 -12 3 -20 14 -20 27 0 11 -4 18 -10 15 -5
-3 -18 -1 -27 5 -16 10 -15 11 5 6 19 -3 22 -1 17 12 -5 13 -2 13 14 -2 11
-10 18 -22 16 -26 -6 -10 23 -35 31 -27 3 3 -3 18 -13 33 -18 28 -17 28 27 -6
53 -41 61 -51 53 -64 -4 -5 2 -7 14 -4 11 3 28 -1 39 -10 15 -12 16 -14 2 -9
-12 4 -15 2 -11 -9 3 -8 11 -13 17 -11 7 3 12 -5 12 -18 0 -17 -4 -21 -20 -17
-19 5 -19 6 -1 12 18 6 18 7 0 13 -24 10 -28 4 -20 -33 5 -25 11 -31 26 -27
10 3 21 2 24 -3 3 -4 14 -10 25 -13 25 -7 27 16 3 41 -10 10 -19 25 -21 33 -1
8 4 6 13 -6 9 -11 19 -20 23 -20 4 0 18 -10 30 -21 23 -21 23 -21 2 -27 -11
-3 -20 -10 -20 -17 0 -7 8 -6 22 4 29 20 40 20 36 0 -2 -12 5 -18 21 -19 13
-1 28 -9 33 -18 5 -10 15 -17 22 -17 7 0 21 -9 31 -20 18 -20 18 -21 0 -14
-13 5 -16 4 -10 -5 6 -10 3 -11 -12 -3 -10 6 -25 22 -33 36 -13 25 -31 31 -32
11 0 -6 -4 -15 -10 -22 -10 -13 -3 -33 13 -33 5 0 9 7 9 15 0 8 5 15 11 15 20
0 3 -35 -24 -48 -15 -7 -27 -17 -27 -23 0 -5 -4 -9 -10 -9 -5 0 -10 11 -10 25
0 22 -4 25 -37 24 -21 0 -32 -3 -25 -6 23 -9 12 -23 -17 -23 -41 0 -47 16 -14
34 29 16 22 20 -11 7 -13 -5 -25 -2 -37 10 -22 22 -91 37 -97 20 -2 -6 -12
-11 -23 -11 -10 0 -19 -5 -19 -11 0 -21 -33 -38 -52 -28 -10 5 -30 7 -45 4
-23 -4 -24 -4 -8 4 11 5 37 10 58 10 26 1 37 5 37 16 0 11 -11 15 -40 15 -29
0 -40 4 -40 15 0 11 11 15 39 15 l39 0 -10 42 c-14 63 -17 63 -34 -7 -7 -30
-7 -30 -18 15 l-12 45 40 6 c36 6 35 6 -17 6 -32 0 -60 -4 -63 -9 -3 -4 1 -8
9 -8 15 0 34 -66 23 -78 -3 -3 -6 4 -6 16 0 15 -6 22 -20 22 -13 0 -20 -7 -20
-18 0 -22 -68 -48 -84 -32 -7 7 1 10 22 10 18 0 32 5 32 10 0 6 -18 10 -40 10
-33 0 -40 3 -40 20 0 17 7 20 40 20 22 0 40 -4 40 -10 0 -5 7 -10 15 -10 8 0
15 8 15 18 0 24 -65 44 -98 29 -21 -10 -23 -17 -20 -54 2 -24 2 -43 1 -43 -1
0 -8 -3 -16 -6 -23 -8 -47 24 -47 63 0 43 -11 38 -12 -6 -1 -32 -8 -32 -53 3
-17 13 -18 15 -3 16 9 0 20 -4 23 -10 9 -15 25 -12 25 4 0 7 -8 16 -17 19 -10
2 -27 8 -38 12 -14 5 -16 4 -7 -3 11 -7 11 -10 -1 -15 -9 -3 -27 6 -44 22 -16
15 -37 30 -46 34 -9 3 -17 11 -17 16 0 5 -11 12 -25 15 -14 4 -25 14 -25 23 0
9 -3 13 -7 10 -10 -11 -32 13 -26 29 3 10 -1 13 -15 12 -12 -2 -43 19 -86 60
l-66 63 18 27 17 27 -27 -17 c-34 -22 -42 -23 -34 -2 4 11 2 15 -7 11 -7 -3
-19 4 -26 15 -10 17 -10 22 0 29 11 7 11 11 1 21 -10 10 -15 10 -22 -2 -9 -13
-11 -13 -20 0 -7 12 -3 16 23 21 31 6 31 6 -9 8 -29 1 -47 8 -64 26 -13 14
-18 25 -12 25 7 0 12 5 12 11 0 6 -5 9 -11 7 -15 -5 -83 58 -75 70 3 6 -10 27
-29 48 -26 28 -32 40 -23 46 13 7 11 9 -14 12 -14 1 -24 26 -10 26 5 0 29 -7
52 -15 24 -8 45 -13 48 -11 4 5 -64 36 -79 36 -5 0 -9 7 -9 15 0 18 -12 19
-28 3 -9 -9 -12 -8 -12 5 0 9 5 17 11 17 6 0 8 7 5 16 -3 9 -3 20 0 25 10 16
34 -11 34 -37 0 -18 5 -24 23 -24 13 0 29 -6 36 -12 11 -10 14 -10 18 0 3 7
22 12 44 12 30 0 39 4 39 17 0 13 -3 14 -12 5 -7 -7 -25 -12 -40 -12 -23 0
-28 4 -28 25 0 27 9 32 28 13 17 -17 28 0 14 22 -9 16 -9 20 0 20 9 0 9 3 0
12 -17 17 -15 30 6 26 9 -2 17 -11 17 -20z m1743 -406 c171 -107 361 -181 557
-217 178 -33 453 -25 623 20 134 34 387 145 473 206 52 37 54 11 3 -46 -19
-22 -42 -52 -50 -67 -8 -16 -18 -28 -23 -28 -4 0 -22 -19 -39 -43 -17 -24 -51
-66 -76 -94 -25 -28 -43 -53 -40 -56 3 -3 -4 -8 -15 -12 -12 -3 -21 -12 -21
-18 0 -7 -5 -6 -11 3 -9 12 -10 12 -5 -3 7 -20 -4 -39 -55 -95 -19 -20 -76
-84 -128 -142 -52 -58 -99 -109 -105 -115 -45 -40 -237 -269 -262 -310 -9 -17
-13 -15 -40 21 -30 40 -198 239 -240 284 -13 14 -47 52 -76 85 -29 34 -86 97
-126 142 -41 45 -87 101 -104 125 -18 23 -46 58 -63 78 -25 27 -184 223 -258
318 -17 21 1 13 81 -36z m3262 -127 c0 -16 -9 -30 -27 -40 -16 -9 -20 -14 -10
-11 12 4 17 0 17 -16 0 -17 -3 -19 -12 -10 -18 18 -30 14 -23 -8 6 -18 3 -20
-19 -14 -26 6 -37 -10 -13 -19 18 -8 -12 -27 -32 -19 -10 4 -11 7 -3 10 17 5
15 20 -8 44 l-20 22 -20 -22 c-12 -12 -28 -22 -36 -22 -17 0 -49 -28 -42 -35
3 -3 27 2 53 10 27 8 51 12 54 10 2 -3 -2 -5 -9 -5 -9 0 -7 -5 6 -15 15 -11
16 -14 4 -15 -9 0 -21 5 -28 12 -15 15 -24 6 -16 -16 4 -9 13 -15 20 -12 8 3
14 1 14 -4 0 -16 -30 -11 -36 5 -4 8 -10 13 -15 10 -4 -3 -6 -12 -2 -20 6 -17
2 -18 -21 -9 -9 3 -16 12 -16 20 0 8 -5 14 -11 14 -6 0 -16 6 -23 13 -11 10
-11 15 0 25 7 7 20 12 29 12 8 0 15 9 15 20 0 13 7 20 18 20 10 0 22 4 28 9 5
5 25 11 44 13 32 3 35 1 32 -22 -2 -22 -1 -23 8 -7 6 9 18 17 25 17 8 0 15 6
15 13 0 7 10 17 23 22 13 6 21 17 19 28 -2 9 2 17 8 17 5 0 10 -11 10 -25z
m-644 -100 c-11 -8 -21 -26 -22 -41 -4 -34 -19 -51 -55 -59 -16 -4 -29 -13
-29 -20 0 -7 -6 -15 -12 -18 -26 -9 -1 -13 65 -9 37 2 67 8 67 13 0 5 -10 10
-22 10 l-23 2 23 4 c12 2 22 9 22 14 0 6 9 8 19 4 11 -3 22 -1 26 5 8 12 25
13 25 1 0 -5 -17 -13 -37 -19 -26 -7 -31 -10 -15 -11 27 -1 30 -21 2 -21 -11
0 -20 -4 -20 -10 0 -5 -10 -11 -22 -11 -21 -2 -21 -2 -3 -6 17 -3 20 -10 17
-38 -5 -43 -22 -46 -22 -4 0 29 -1 30 -17 13 -13 -13 -14 -19 -5 -22 14 -4 16
-32 2 -32 -5 0 -10 7 -10 15 0 8 -7 15 -15 15 -29 0 -15 -28 17 -35 26 -6 29
-10 17 -19 -13 -11 -39 -50 -39 -60 0 -3 8 -6 18 -8 13 -3 8 -8 -17 -21 -44
-22 -42 -22 -36 13 3 17 1 30 -3 30 -16 0 -22 -13 -11 -27 9 -10 6 -13 -13
-13 -13 0 -29 5 -36 12 -6 6 -15 8 -19 4 -4 -4 -1 -11 7 -16 8 -5 11 -12 7
-16 -4 -4 -15 2 -24 13 -10 11 -31 23 -48 27 -23 5 -27 4 -15 -4 11 -9 12 -13
3 -17 -7 -2 -13 -17 -13 -31 0 -39 -16 -60 -32 -44 -9 9 -9 12 3 12 9 0 5 7
-11 19 l-24 19 33 31 c25 24 42 31 72 31 21 0 39 5 39 10 0 6 -20 10 -45 10
-25 0 -45 5 -45 10 0 6 21 10 48 11 44 1 45 1 21 12 -22 10 -24 15 -15 29 8
13 8 23 -1 38 -11 16 -9 21 9 34 12 9 19 19 15 22 -4 4 1 13 11 20 21 16 32
17 32 4 0 -5 -7 -10 -15 -10 -8 0 -15 -4 -15 -9 0 -4 11 -6 24 -4 19 4 24 11
23 32 -2 24 1 26 31 23 18 -2 32 1 32 7 0 6 9 11 20 11 11 0 20 7 20 15 0 21
-10 19 -37 -7 -13 -12 -26 -18 -29 -15 -4 4 6 17 22 29 16 13 40 33 54 45 14
12 30 22 35 22 6 0 1 -6 -9 -14z m1867 -46 c16 1 36 -12 31 -20 -3 -5 1 -9 9
-9 7 0 14 -7 14 -15 0 -11 -4 -12 -14 -4 -7 6 -13 8 -13 3 0 -5 -7 1 -15 13
-15 21 -55 38 -55 23 0 -4 11 -11 25 -14 24 -6 36 -36 15 -36 -5 0 -10 5 -10
12 0 6 -3 8 -6 5 -4 -4 -1 -13 6 -21 11 -14 14 -14 27 0 14 13 17 13 29 -3 12
-16 15 -16 25 -3 8 11 12 12 16 3 2 -7 10 -13 17 -13 6 0 12 -9 13 -19 1 -15
-3 -18 -15 -14 -14 6 -15 5 -2 -9 11 -11 17 -13 23 -4 4 7 10 8 15 1 4 -5 16
-15 27 -21 12 -7 19 -20 17 -34 -2 -19 0 -21 13 -10 10 9 15 9 15 1 0 -6 4
-11 10 -11 5 0 6 8 3 18 -7 16 -6 16 11 0 9 -10 19 -27 21 -39 2 -11 7 -29 10
-40 5 -16 1 -19 -30 -19 -20 0 -34 -4 -30 -10 3 -5 11 -7 18 -4 16 6 51 -31
43 -45 -4 -5 -9 -29 -12 -53 -4 -24 -11 -46 -16 -49 -5 -3 -8 -12 -7 -20 3
-15 -21 -71 -34 -80 -5 -3 -8 -9 -7 -13 3 -14 -26 -66 -37 -66 -7 0 -10 -7 -6
-16 7 -18 -16 -66 -28 -58 -4 2 -11 -1 -15 -7 -4 -8 -3 -9 4 -5 16 10 15 0 -4
-39 -8 -18 -23 -36 -32 -39 -9 -3 -23 -9 -31 -12 -10 -5 -11 -1 -6 16 5 15 1
27 -14 41 -24 22 -27 35 -9 41 7 3 2 7 -10 10 -19 5 -22 3 -17 -13 4 -10 2
-19 -2 -19 -13 0 -32 180 -33 309 -1 103 1 115 20 128 11 8 20 22 20 31 0 12
-3 13 -12 4 -16 -16 -28 -15 -28 2 0 8 7 16 15 20 18 7 19 20 2 38 -20 20 -18
206 3 211 8 1 17 -3 20 -11 3 -7 9 -13 13 -13z m-4773 -212 c0 -15 56 -17 78
-3 15 9 72 -2 72 -15 0 -5 7 -9 15 -9 8 0 15 -7 15 -15 0 -8 -5 -15 -11 -15
-6 0 -9 -14 -7 -32 2 -23 12 -38 33 -53 19 -12 29 -27 27 -37 -4 -21 -41 -24
-61 -5 -11 10 -13 10 -7 0 4 -7 5 -17 1 -23 -6 -10 -28 5 -78 53 -16 15 -31
27 -33 27 -11 0 -33 28 -27 34 4 3 -3 6 -15 6 -12 0 -22 4 -22 9 0 6 -18 21
-41 34 -27 17 -36 27 -27 31 7 3 3 4 -10 2 -12 -2 -19 0 -16 5 3 5 20 7 39 3
19 -3 35 -1 39 5 10 15 36 14 36 -2z m2394 -113 c3 -8 2 -12 -3 -9 -12 7 -83
-40 -74 -49 4 -3 -2 -6 -13 -6 -10 0 -28 -7 -38 -15 -18 -14 -18 -15 8 -25 15
-5 32 -10 37 -10 16 0 10 18 -8 23 -11 3 -7 5 10 6 15 0 27 -4 27 -9 0 -20
-24 -37 -45 -32 -20 4 -20 4 0 -11 11 -8 29 -16 40 -18 13 -3 21 -14 23 -32 3
-22 -1 -27 -17 -27 -12 0 -21 5 -21 11 0 5 -5 7 -10 4 -11 -7 12 -35 29 -35 6
0 11 -4 11 -9 0 -13 -54 -24 -58 -12 -2 6 -16 11 -32 11 -16 0 -30 6 -33 13
-3 8 -7 6 -12 -5 -4 -10 -4 -26 0 -35 5 -12 9 -14 12 -5 8 20 18 14 18 -12 0
-19 -3 -21 -17 -12 -13 8 -21 7 -29 -1 -9 -9 -17 -6 -35 12 -13 13 -24 29 -24
35 0 17 26 40 45 40 23 0 14 21 -13 31 -17 6 -20 5 -15 -8 5 -12 2 -15 -9 -10
-12 4 -14 1 -11 -14 4 -14 0 -19 -16 -19 -14 0 -21 -6 -21 -20 0 -12 7 -20 16
-20 21 0 56 -39 52 -59 -4 -20 -28 -26 -28 -7 0 9 -7 19 -15 22 -8 3 -17 14
-20 25 -4 10 -13 19 -21 19 -11 0 -13 -6 -8 -22 6 -20 5 -21 -9 -9 -9 7 -14
17 -12 22 11 16 -6 58 -21 52 -11 -4 -12 -9 -3 -19 9 -11 8 -18 -1 -29 -10
-12 -10 -15 0 -15 8 0 11 -3 7 -6 -3 -3 -14 -1 -24 5 -11 7 -13 11 -4 11 9 0
11 8 8 23 -8 30 -1 38 67 82 47 30 60 35 68 24 8 -11 9 -10 5 2 -4 12 9 26 44
48 28 17 53 31 57 32 4 0 34 20 67 44 33 24 61 44 61 44 1 1 5 -6 8 -15z
m-2288 -125 c1 -5 2 -20 3 -34 1 -17 9 -29 24 -34 20 -8 20 -10 4 -16 -9 -4
-23 -2 -30 3 -10 8 -13 5 -15 -14 -1 -13 3 -24 8 -24 6 0 10 4 10 9 0 6 12 3
28 -5 15 -7 35 -14 46 -14 15 0 17 6 14 41 -3 38 -3 40 12 22 8 -11 22 -17 29
-15 8 3 11 0 7 -7 -4 -6 0 -11 11 -11 15 0 16 -2 3 -11 -12 -9 -11 -10 7 -6
13 3 28 -2 38 -13 9 -10 23 -16 30 -14 7 3 16 1 20 -5 4 -7 -1 -9 -12 -5 -14
5 -15 4 -4 -4 8 -6 20 -8 26 -5 7 2 19 -2 26 -9 8 -8 34 -26 57 -40 29 -17 39
-28 30 -32 -7 -3 -4 -4 8 -1 13 3 31 -2 45 -14 l24 -20 -37 6 c-25 4 -38 2
-38 -6 0 -6 5 -11 11 -11 5 0 7 -5 3 -12 -6 -9 -9 -9 -12 0 -4 14 -82 16 -82
2 0 -5 -15 0 -34 11 -18 10 -41 17 -50 13 -11 -4 -16 -1 -16 10 0 9 -8 16 -20
16 -23 0 -26 10 -8 28 9 9 16 8 30 -5 16 -14 18 -14 18 0 0 8 -5 17 -12 19 -7
3 -8 9 -3 19 14 22 15 41 2 35 -7 -3 -20 -9 -30 -12 -12 -4 -16 -13 -12 -25 4
-13 1 -19 -9 -19 -22 0 -28 16 -11 33 11 12 12 17 2 21 -6 3 2 3 18 -1 23 -4
27 -3 19 6 -6 6 -27 14 -47 18 -33 5 -37 3 -37 -16 0 -11 -6 -21 -14 -21 -8 0
-17 -6 -19 -12 -3 -7 -6 -2 -7 12 -1 14 -4 19 -7 13 -7 -18 -23 -16 -23 3 0
10 -6 14 -15 10 -8 -3 -20 1 -27 8 -8 7 -20 15 -28 19 -12 4 -12 6 2 6 17 1
36 71 24 90 -4 5 -2 12 4 16 6 4 7 12 4 18 -4 7 -3 8 2 4 5 -5 10 -13 10 -18z"/>
<path d="M5950 4795 c0 -17 67 -98 107 -129 82 -64 216 -70 330 -15 40 19 133
110 133 130 0 21 -33 6 -82 -39 -107 -96 -171 -117 -270 -88 -55 16 -88 40
-140 103 -23 29 -78 56 -78 38z"/>
<path d="M1635 898 c-4 -13 -7 -42 -6 -65 0 -33 -3 -41 -15 -36 -10 4 -12 0
-7 -13 4 -10 2 -15 -4 -11 -6 4 -9 -8 -7 -31 3 -53 3 -54 13 -48 12 8 19 -62
7 -74 -7 -7 -6 -10 1 -10 8 0 12 -46 12 -145 1 -111 -1 -145 -11 -145 -9 0
-10 -2 -1 -8 11 -7 16 -49 13 -112 -1 -28 -3 -31 -9 -15 -8 19 -9 18 -13 -5
-5 -21 -5 -20 -7 8 0 17 -5 32 -9 32 -11 0 -46 -196 -37 -209 3 -6 33 -11 66
-11 l59 0 0 80 c0 44 4 80 9 80 15 0 18 92 4 97 -19 7 -16 34 5 49 16 13 16
13 0 14 -14 0 -18 9 -19 38 -2 122 0 182 5 190 4 6 2 14 -4 17 -6 4 -8 15 -5
25 8 24 7 120 -1 185 -3 28 -7 70 -8 94 -2 49 -19 65 -31 29z"/>
<path d="M1253 608 c-4 -7 -8 -17 -8 -23 -1 -5 -6 -9 -13 -7 -7 1 -11 -1 -11
-5 4 -22 -3 -43 -17 -57 -8 -9 -12 -16 -8 -16 3 0 0 -8 -7 -17 -10 -11 -10
-14 -1 -9 6 4 12 2 12 -3 0 -19 -20 -12 -45 15 -28 30 -42 26 -42 -12 0 -14
-6 -30 -13 -34 -7 -4 -10 -15 -7 -23 4 -12 2 -14 -10 -10 -10 4 -14 2 -10 -4
4 -6 0 -19 -9 -27 -9 -9 -18 -35 -21 -57 -4 -27 -10 -39 -19 -35 -8 3 -11 0
-7 -9 3 -8 8 -13 12 -11 3 2 15 -6 26 -17 l20 -20 -22 12 c-13 6 -23 9 -23 5
0 -3 -7 0 -16 7 -15 12 -16 11 -10 -9 8 -24 -18 -67 -34 -57 -4 3 -11 -2 -14
-11 -3 -9 -2 -12 5 -9 13 8 39 -13 39 -31 0 -8 -6 -13 -12 -12 -8 2 -13 -8
-13 -24 1 -15 -4 -26 -10 -25 -5 1 -9 -9 -7 -21 1 -14 -3 -22 -9 -20 -6 2 -10
7 -10 11 1 4 1 16 1 28 0 11 4 18 8 15 5 -3 9 10 10 29 1 19 -3 35 -8 35 -5 0
-6 -7 -3 -17 5 -12 3 -14 -7 -8 -9 5 -11 4 -6 -4 5 -7 2 -26 -4 -42 -10 -24
-10 -35 -1 -53 13 -23 13 -23 252 -24 178 -2 239 1 239 10 0 6 -9 38 -21 71
-17 49 -19 61 -8 68 11 6 11 11 1 21 -9 9 -12 9 -12 0 0 -17 -17 -15 -24 4 -3
8 -2 12 4 9 6 -3 10 4 10 16 0 18 -2 19 -15 9 -12 -10 -15 -10 -15 3 0 9 5 19
10 22 15 9 12 28 -3 22 -8 -3 -17 8 -23 29 -11 33 -10 34 17 34 16 0 29 5 29
11 0 5 -4 8 -8 5 -5 -3 -6 8 -4 25 4 26 1 29 -24 30 -17 1 -22 3 -11 6 12 3
17 15 17 44 0 32 -3 39 -20 39 -17 0 -20 7 -21 43 -1 23 -1 46 0 51 6 35 -29
61 -46 34z"/>
</g>
</svg>
